<svg width="416" height="312" viewBox="0 0 416 312" fill="none" xmlns="http://www.w3.org/2000/svg">
<path opacity="0.5" d="M162.624 59.5417C162.617 55.0461 144.665 54.0282 144.665 54.0282C144.665 54.0282 130.113 54.6988 130.12 59.1944C130.127 63.69 127.775 65.1634 144.684 66.3709C156.546 67.218 162.631 64.0373 162.624 59.5417Z" fill="#0070F6"/>
<path opacity="0.5" d="M78.1267 106.89C78.0488 110.699 83.6575 112.013 87.9548 111.788C91.5394 111.6 96.0121 111.404 96.09 107.595C96.1678 103.787 92.1096 101.818 88.1686 101.332C80.7651 100.418 78.2046 103.082 78.1267 106.89Z" fill="#0070F6"/>
<path d="M196.454 114.579C196.4 119.497 203.09 128.728 215.188 127.794C225.587 127.751 228.514 114.163 218.713 112.183C214.397 111.311 209.944 113.321 206.194 110.049C202.444 106.777 196.509 109.661 196.454 114.579Z" fill="#FF9780"/>
<path d="M74.4392 204.43C76.8908 206.615 78.8982 205.456 80.7046 203.43C82.511 201.404 82.0423 199.591 79.5907 197.406C77.1391 195.22 75.0773 194.777 73.271 196.803C71.4646 198.83 71.9876 202.244 74.4392 204.43Z" fill="#BBED58"/>
<path d="M353.132 167.12C356.87 166.24 357.098 163.496 356.357 160.351C355.617 157.206 353.562 156.417 349.825 157.297C346.087 158.177 344.284 159.874 345.024 163.019C345.765 166.164 349.395 168 353.132 167.12Z" fill="#071D2B" fill-opacity="0.15"/>
<path d="M236.061 147.854C235.516 145.36 237.416 143 239.969 143H267.545C268.73 143 269.855 143.526 270.615 144.436L301.518 181.436C303.693 184.04 301.841 188 298.447 188H251.278C247.519 188 244.266 185.382 243.463 181.709L236.061 147.854Z" fill="#FFDDBF"/>
<path d="M143.011 265H154C156.209 265 158 263.209 158 261V224.784C158 222.694 156.306 221 154.216 221C145.875 221 139.106 227.75 139.082 236.091L139.011 260.989C139.005 263.202 140.798 265 143.011 265Z" fill="#071D2B" fill-opacity="0.15"/>
<path d="M333.47 248L346.947 248C351.345 248 354.918 251.55 354.947 255.947C354.976 260.386 351.386 264 346.947 264L333.429 264C329.878 264 327 261.122 327 257.571L327 254.47C327 250.897 329.897 248 333.47 248Z" fill="#BBED58"/>
<path opacity="0.5" d="M366.906 120.624C366.657 125.479 351.587 123.105 351.587 123.105C351.587 123.105 342.041 122.846 342.29 117.991C342.538 113.136 344.33 114.894 352.25 112.509C361.964 109.584 367.155 115.769 366.906 120.624Z" fill="#0070F6"/>
<path d="M319.498 180.5C319.498 211.156 319.498 253.962 319.498 271.514C319.498 275.932 315.917 279.5 311.498 279.5H265.499H219.49C215.075 279.5 211.495 275.951 211.493 271.536C211.482 244.941 211.499 186.5 211.499 186.5L162.499 143.5L120.571 183.564C118.905 185.156 116.243 185.015 114.754 183.256L108.991 176.444C107.601 174.801 107.76 172.352 109.351 170.903L161.927 123.021C162.295 122.686 162.775 122.5 163.273 122.5H269.573C270.16 122.5 270.698 122.735 271.078 123.182C276.059 129.049 311.669 170.994 319.498 180.5ZM319.498 180.5C319.498 180.5 248.665 180.5 215.499 180.5L162.499 134.5C154.958 141.362 125.198 169.275 118.74 175.335C117.934 176.091 117.499 177.127 117.499 178.231V259.5C117.499 263.918 121.081 267.5 125.499 267.5H362V236C362 231.582 358.418 228 354 228H319.498M145.5 266.5V232.5C145.5 223.111 153.111 215.5 162.5 215.5V215.5C171.889 215.5 179.5 223.111 179.5 232.5V271.5C179.5 275.918 175.918 279.5 171.5 279.5H88" stroke="#071D2B" stroke-width="1.5" stroke-miterlimit="10" stroke-linecap="round" stroke-linejoin="round"/>
<path d="M88.4258 278.75C88.84 278.75 89.1758 279.086 89.1758 279.5C89.1758 279.914 88.84 280.25 88.4258 280.25V278.75ZM93.9258 252.808L93.6854 253.518L93.9258 252.808ZM95.343 226.131C95.5466 225.771 96.0041 225.643 96.3648 225.847C96.7255 226.051 96.8528 226.508 96.6492 226.869L95.343 226.131ZM99.0621 245.827L98.4106 246.198L99.0621 245.827ZM97.2321 252.636L97.5037 253.335L97.2321 252.636ZM88.4258 280.25C67.7427 280.25 53.7458 269.367 53.7458 255.5H55.2458C55.2458 268.142 68.1088 278.75 88.4258 278.75V280.25ZM53.7458 255.5C53.7458 248.149 55.9184 242.596 59.4152 238.729C62.9077 234.867 67.6649 232.75 72.725 232.164C82.8105 230.995 94.2592 235.891 99.7136 245.455L98.4106 246.198C93.2848 237.211 82.4503 232.547 72.8977 233.654C68.1388 234.205 63.7382 236.185 60.5277 239.735C57.3214 243.28 55.2458 248.454 55.2458 255.5H53.7458ZM97.5037 253.335C96.3766 253.773 95.0465 253.979 93.6854 253.518L94.1662 252.097C95.095 252.412 96.0489 252.291 96.9605 251.937L97.5037 253.335ZM93.6854 253.518C92.2004 253.015 91.0923 252.17 90.319 251.064C89.5521 249.968 89.1414 248.657 88.9768 247.252C88.6498 244.461 89.2797 241.167 90.2188 238.074C91.163 234.964 92.4443 231.98 93.4855 229.779C94.0068 228.677 94.4697 227.768 94.8028 227.133C94.9694 226.815 95.1037 226.566 95.1966 226.396C95.2431 226.311 95.2793 226.246 95.3041 226.201C95.3164 226.179 95.326 226.162 95.3325 226.15C95.3358 226.144 95.3383 226.14 95.34 226.137C95.3409 226.135 95.3416 226.134 95.3421 226.133C95.3423 226.132 95.3426 226.132 95.3427 226.132C95.3429 226.131 95.343 226.131 95.9961 226.5C96.6492 226.869 96.6492 226.869 96.6492 226.869C96.6491 226.869 96.6491 226.869 96.6489 226.869C96.6486 226.87 96.6482 226.871 96.6475 226.872C96.6461 226.874 96.644 226.878 96.6412 226.883C96.6355 226.893 96.6268 226.909 96.6153 226.929C96.5923 226.971 96.5579 227.033 96.5132 227.115C96.4239 227.279 96.2936 227.52 96.1311 227.83C95.806 228.449 95.3526 229.34 94.8414 230.421C93.8175 232.585 92.5691 235.496 91.6541 238.51C90.7342 241.539 90.1758 244.596 90.4667 247.078C90.611 248.31 90.9609 249.365 91.548 250.204C92.1287 251.034 92.9682 251.692 94.1662 252.097L93.6854 253.518ZM99.7136 245.455C100.507 246.846 100.743 248.486 100.394 249.944C100.042 251.415 99.0857 252.721 97.5037 253.335L96.9605 251.937C98.0208 251.525 98.6813 250.657 98.9351 249.596C99.1919 248.521 99.0219 247.27 98.4106 246.198L99.7136 245.455Z" fill="#071D2B"/>
<path d="M233.499 218.5V217.75C233.085 217.75 232.749 218.086 232.749 218.5H233.499ZM257.499 218.5H258.249C258.249 218.086 257.913 217.75 257.499 217.75V218.5ZM257.499 242.5V243.25C257.913 243.25 258.249 242.914 258.249 242.5H257.499ZM233.499 242.5H232.749C232.749 242.914 233.085 243.25 233.499 243.25V242.5ZM233.499 229.75C233.085 229.75 232.749 230.086 232.749 230.5C232.749 230.914 233.085 231.25 233.499 231.25V229.75ZM257.499 231.25C257.913 231.25 258.249 230.914 258.249 230.5C258.249 230.086 257.913 229.75 257.499 229.75V231.25ZM244.749 242.5C244.749 242.914 245.085 243.25 245.499 243.25C245.913 243.25 246.249 242.914 246.249 242.5H244.749ZM246.249 218.5C246.249 218.086 245.913 217.75 245.499 217.75C245.085 217.75 244.749 218.086 244.749 218.5L246.249 218.5ZM233.499 219.25H257.499V217.75H233.499V219.25ZM256.749 218.5V242.5H258.249V218.5H256.749ZM257.499 241.75H233.499V243.25H257.499V241.75ZM234.249 242.5V218.5H232.749V242.5H234.249ZM233.499 231.25H257.499V229.75H233.499V231.25ZM246.249 242.5L246.249 218.5L244.749 218.5L244.749 242.5H246.249Z" fill="#071D2B"/>
<path d="M273.499 218.5V217.75C273.085 217.75 272.749 218.086 272.749 218.5H273.499ZM297.499 218.5H298.249C298.249 218.086 297.913 217.75 297.499 217.75V218.5ZM297.499 242.5V243.25C297.913 243.25 298.249 242.914 298.249 242.5H297.499ZM273.499 242.5H272.749C272.749 242.914 273.085 243.25 273.499 243.25V242.5ZM273.499 229.75C273.085 229.75 272.749 230.086 272.749 230.5C272.749 230.914 273.085 231.25 273.499 231.25V229.75ZM297.499 231.25C297.913 231.25 298.249 230.914 298.249 230.5C298.249 230.086 297.913 229.75 297.499 229.75V231.25ZM284.749 242.5C284.749 242.914 285.085 243.25 285.499 243.25C285.913 243.25 286.249 242.914 286.249 242.5H284.749ZM286.249 218.5C286.249 218.086 285.913 217.75 285.499 217.75C285.085 217.75 284.749 218.086 284.749 218.5L286.249 218.5ZM273.499 219.25H297.499V217.75H273.499V219.25ZM296.749 218.5V242.5H298.249V218.5H296.749ZM297.499 241.75H273.499V243.25H297.499V241.75ZM274.249 242.5V218.5H272.749V242.5H274.249ZM273.499 231.25H297.499V229.75H273.499V231.25ZM286.249 242.5L286.249 218.5L284.749 218.5L284.749 242.5H286.249Z" fill="#071D2B"/>
<path d="M162.5 186.5C165.261 186.5 167.5 184.261 167.5 181.5C167.5 178.739 165.261 176.5 162.5 176.5C159.739 176.5 157.5 178.739 157.5 181.5C157.5 184.261 159.739 186.5 162.5 186.5Z" stroke="#071D2B" stroke-width="1.5" stroke-miterlimit="10" stroke-linecap="round" stroke-linejoin="round"/>
<path d="M172 248.5C173.381 248.5 174.5 247.381 174.5 246C174.5 244.619 173.381 243.5 172 243.5C170.619 243.5 169.5 244.619 169.5 246C169.5 247.381 170.619 248.5 172 248.5Z" stroke="#071D2B" stroke-width="1.5" stroke-miterlimit="10" stroke-linecap="round" stroke-linejoin="round"/>
<path d="M130.253 61.9906C130.253 61.9906 121.472 62.2102 124.721 55.5037C128.179 48.3681 136.2 52.6506 138.551 50.3153C139.796 49.0179 139.934 47.7205 142.7 46.4232C147.555 44.1462 152.243 52.0017 156.53 47.7203C158.604 45.6445 164.828 45.2546 166.211 50.3143C167.455 54.9849 171.259 52.5904 174.509 54.2063C176.125 55.0103 178.381 57.32 175.891 60.0445C173.817 62.2501 166.211 61.9906 166.211 61.9906L130.253 61.9906Z" stroke="#071D2B" stroke-width="1.5" stroke-miterlimit="10" stroke-linecap="round" stroke-linejoin="round"/>
<path d="M338.891 118.94C334.021 118.95 333.771 115.14 334.111 114.31C337.181 106.97 343.581 110.69 345.331 108.75C346.231 107.74 346.511 107.6 347.571 106.8C351.651 103.71 354.501 110.1 357.631 106.62C359.151 104.92 364.311 104.86 365.581 108.98C366.711 112.7 369.651 110.74 371.921 112.46C373.771 113.86 376.041 115.67 374.201 117.89C372.721 119.67 368.701 119 365.801 118.92C354.731 118.59 349.931 118.93 338.891 118.94Z" stroke="#071D2B" stroke-width="1.5" stroke-miterlimit="10" stroke-linecap="round" stroke-linejoin="round"/>
<path d="M306.5 59.5V63.4062M306.5 67.5V71.5M312.5 65.5H308.594M304.406 65.5H300.5" stroke="#071D2B" stroke-width="1.5" stroke-miterlimit="10" stroke-linecap="round" stroke-linejoin="round"/>
<path d="M73.5 200.5C75.1569 200.5 76.5 199.157 76.5 197.5C76.5 195.843 75.1569 194.5 73.5 194.5C71.8431 194.5 70.5 195.843 70.5 197.5C70.5 199.157 71.8431 200.5 73.5 200.5Z" stroke="#071D2B" stroke-width="1.5" stroke-miterlimit="10" stroke-linecap="round" stroke-linejoin="round"/>
<path d="M77.4977 105.5C73.8077 105.5 73.9584 103.109 74.4977 101.5C75.7551 97.7501 81.4487 99.1301 82.9187 97.7501C83.4653 97.211 84.0538 96.7161 84.6787 96.2701C87.9087 93.9701 89.7487 98.8601 92.2487 96.1801C93.4487 94.8901 97.3187 94.8901 98.0587 98.0301C98.7087 100.8 102.313 99.6382 102.998 101.5C103.951 104.092 100.391 105.5 97.4977 105.5C97.4977 105.5 84.3457 105.5 77.4977 105.5Z" stroke="#071D2B" stroke-width="1.5" stroke-linecap="round" stroke-linejoin="round"/>
<path d="M234 122C234 109.547 227.26 104.312 215.597 108.974C212.785 110.109 209.249 111.432 207.233 108.255C205.048 104.802 203.748 92 203.748 92L200.345 98.75L196.185 92L192.715 114.593C192.076 118.751 195.293 122.5 199.5 122.5V122.5M189 99.3838L200.345 103.125M200.345 103.125L189 106.269M200.345 103.125L212.089 106.269M200.345 103.125L212.089 99.3838" stroke="#071D2B" stroke-width="1.5" stroke-miterlimit="10" stroke-linecap="round" stroke-linejoin="round"/>
<path d="M221 117H209C206.239 117 204 119.239 204 122V122" stroke="#071D2B" stroke-width="1.5" stroke-miterlimit="10" stroke-linecap="round" stroke-linejoin="round"/>
<path d="M244 97C244 95.8954 244.895 95 246 95H258C259.105 95 260 95.8954 260 97V127C260 128.105 259.105 129 258 129H246C244.895 129 244 128.105 244 127V97Z" stroke="#071D2B" stroke-width="1.5" stroke-miterlimit="10" stroke-linecap="round" stroke-linejoin="round"/>
</svg>
