<svg width="416" height="312" viewBox="0 0 416 312" fill="none" xmlns="http://www.w3.org/2000/svg">
<path opacity="0.5" d="M314.624 78.5415C314.617 74.0458 296.665 73.0279 296.665 73.0279C296.665 73.0279 282.113 73.6985 282.12 78.1942C282.127 82.6898 279.775 84.1631 296.684 85.3707C308.546 86.2177 314.631 83.0371 314.624 78.5415Z" fill="#0070F6"/>
<path d="M366.972 160.762C364.021 159.32 362.199 161.392 360.757 164.343C359.315 167.294 360.365 168.606 363.316 170.048C366.266 171.49 368.262 171.666 369.704 168.716C371.146 165.765 369.923 162.204 366.972 160.762Z" fill="#BBED58"/>
<path d="M44.4053 194.945C45.7335 197.949 48.0404 197.725 50.523 196.627C53.0057 195.529 53.3285 193.685 52.0002 190.681C50.6719 187.677 48.9781 186.421 46.4955 187.519C44.0128 188.617 43.077 191.942 44.4053 194.945Z" fill="#FFDDBF"/>
<path opacity="0.5" d="M115.097 54.8905C115.019 58.6991 120.628 60.0134 124.925 59.7882C128.51 59.6003 132.982 59.4038 133.06 55.5952C133.138 51.7866 129.08 49.8181 125.139 49.3316C117.735 48.4176 115.175 51.0818 115.097 54.8905Z" fill="#0070F6"/>
<path d="M308 167L312.178 167C313.829 167 315.31 165.986 315.907 164.446L322.888 146.446C323.905 143.825 321.97 141 319.158 141L308 141C305.791 141 304 142.791 304 145L304 163C304 165.209 305.791 167 308 167Z" fill="#071D2B" fill-opacity="0.15"/>
<path d="M198.082 66.2029C199.461 64.6239 202.031 65.9613 201.53 67.9971L195.75 91.4567C195.31 93.2438 193.707 94.4998 191.866 94.4998H182.169C178.734 94.4998 176.897 90.4553 179.156 87.8683L198.082 66.2029Z" fill="#FF9780"/>
<path d="M127 186H120.582C118.578 186 116.884 187.482 116.617 189.467L107.609 256.467C107.287 258.866 109.153 261 111.574 261H127C129.209 261 131 259.209 131 257V190C131 187.791 129.209 186 127 186Z" fill="#071D2B" fill-opacity="0.15"/>
<path d="M203.5 235.529C203.5 233.028 205.545 230.958 208.004 231.417C212.387 232.237 216.494 234.244 219.856 237.259C223.218 240.274 225.66 244.138 226.951 248.407C227.675 250.801 225.839 253.059 223.352 253.33C220.866 253.602 218.688 251.758 217.709 249.456C216.831 247.391 215.506 245.526 213.808 244.004C212.111 242.481 210.113 241.367 207.965 240.718C205.57 239.995 203.5 238.031 203.5 235.529Z" fill="#FFDDBF"/>
<path d="M280.502 156.5V172.5C280.502 173.052 280.054 173.5 279.502 173.5H257.502C256.949 173.5 256.502 173.052 256.502 172.5V136.5C256.502 135.948 256.054 135.5 255.502 135.5H245.502C244.949 135.5 244.502 135.052 244.502 134.5V117.5C244.502 116.948 244.054 116.5 243.502 116.5H232.502C231.949 116.5 231.502 116.948 231.502 117.5V127.5C231.502 128.052 231.054 128.5 230.502 128.5H225.502C224.949 128.5 224.502 128.052 224.502 127.5V117.5C224.502 116.948 224.054 116.5 223.502 116.5H212.502C211.949 116.5 211.502 116.948 211.502 117.5V127.5C211.502 128.052 211.054 128.5 210.502 128.5H204.502C203.949 128.5 203.502 128.052 203.502 127.5V117.5C203.502 116.948 203.054 116.5 202.502 116.5H191.502C190.949 116.5 190.502 116.948 190.502 117.5L190.501 127.5C190.501 128.052 190.053 128.5 189.501 128.5L184.502 128.5C183.949 128.5 183.502 128.052 183.502 127.5V117.5C183.502 116.948 183.054 116.5 182.502 116.5H171.502C170.949 116.5 170.502 116.948 170.502 117.5V134.5C170.502 135.052 170.054 135.5 169.502 135.5H160.502C159.95 135.5 159.502 135.948 159.502 136.5V160.5C159.502 161.052 159.95 161.5 160.502 161.5H244.502V147.5H171.459V172.5C171.459 173.052 171.011 173.5 170.459 173.5H144.47C143.918 173.5 143.47 173.948 143.47 174.5V195.5C143.47 196.052 143.918 196.5 144.47 196.5H155.49C156.043 196.5 156.49 196.052 156.49 195.5V183.5C156.49 182.948 156.938 182.5 157.49 182.5H170.47C171.022 182.5 171.47 182.948 171.47 183.5V195.5C171.47 196.052 171.918 196.5 172.47 196.5H184.47C185.022 196.5 185.47 196.052 185.47 195.5V183.5C185.47 182.948 185.918 182.5 186.47 182.5H199.47C200.022 182.5 200.47 182.948 200.47 183.5V195.5C200.47 196.052 200.918 196.5 201.47 196.5H212.472C213.024 196.5 213.471 196.054 213.472 195.502L213.5 183.498C213.501 182.946 213.948 182.5 214.5 182.5H227.502C228.054 182.5 228.502 182.948 228.502 183.5V195.5C228.502 196.052 228.95 196.5 229.502 196.5H241.502C242.054 196.5 242.502 196.052 242.502 195.5V183.5C242.502 182.948 242.95 182.5 243.502 182.5H256.502C257.054 182.5 257.502 182.948 257.502 183.5V195.5C257.502 196.052 257.95 196.5 258.502 196.5H270.502C271.054 196.5 271.502 196.052 271.502 195.5V183.5C271.502 182.948 271.95 182.5 272.502 182.5H284.502C285.054 182.5 285.502 182.948 285.502 183.5L285.5 268.5C285.5 269.052 285.052 269.5 284.5 269.5H187.954H91.4073C90.8547 269.5 90.4069 269.052 90.4073 268.499L90.4999 156.915C90.5001 156.649 90.3947 156.395 90.207 156.207L78.7931 144.793C78.6056 144.605 78.5002 144.351 78.5002 144.086V110.5C78.5002 109.948 78.9479 109.5 79.5002 109.5H92.5002C93.0525 109.5 93.5002 109.948 93.5002 110.5V127.5C93.5002 128.052 93.9479 128.5 94.5002 128.5H105.5C106.053 128.5 106.5 128.052 106.5 127.5V110.5C106.5 109.948 106.948 109.5 107.5 109.5H119.5C120.053 109.5 120.5 109.948 120.5 110.5V127.5C120.5 128.052 120.948 128.5 121.5 128.5H132.5C133.053 128.5 133.5 128.052 133.5 127.5V110.5C133.5 109.948 133.948 109.5 134.5 109.5H146.5C147.053 109.5 147.5 109.948 147.5 110.5V144.5M147.5 144.5C143.204 149.186 136.5 156.5 136.5 156.5M147.5 144.5L136.5 156.5M136.5 156.5V280.5C136.5 281.052 136.081 281.5 135.529 281.5C128.517 281.5 85.1786 281.5 59.502 281.5M280.5 156.5L268.793 144.793C268.605 144.605 268.5 144.351 268.5 144.086V110.5C268.5 109.948 268.948 109.5 269.5 109.5H282.5C283.052 109.5 283.5 109.948 283.5 110.5V127.5C283.5 128.052 283.948 128.5 284.5 128.5H295.5C296.052 128.5 296.5 128.052 296.5 127.5V110.5C296.5 109.948 296.948 109.5 297.5 109.5H309.501C310.053 109.5 310.501 109.948 310.501 110.5V127.5C310.501 128.052 310.948 128.5 311.501 128.5H322.501C323.053 128.5 323.501 128.052 323.501 127.5V110.5C323.501 109.948 323.948 109.5 324.501 109.5H336.501C337.053 109.5 337.501 109.948 337.501 110.5V144.111C337.501 144.361 337.407 144.602 337.238 144.787L326.763 156.213C326.594 156.398 326.501 156.639 326.501 156.889V280.5C326.501 281.052 326.948 281.5 327.501 281.5H350.5M208 269.5V248.75V228" stroke="#071D2B" stroke-width="1.5" stroke-miterlimit="10" stroke-linecap="round" stroke-linejoin="round"/>
<path d="M178.5 116.5L178.488 100.5M237.5 100.5V116.5" stroke="#071D2B" stroke-width="1.5" stroke-miterlimit="10" stroke-linecap="round" stroke-linejoin="round"/>
<path d="M240.504 100.5H174.504L207.504 59.5L240.504 100.5Z" stroke="#071D2B" stroke-width="1.5" stroke-miterlimit="10" stroke-linecap="round" stroke-linejoin="round"/>
<path d="M206.75 59.8965C206.75 60.3107 207.086 60.6465 207.5 60.6465C207.914 60.6465 208.25 60.3107 208.25 59.8965H206.75ZM208.25 30.5C208.25 30.0858 207.914 29.75 207.5 29.75C207.086 29.75 206.75 30.0858 206.75 30.5H208.25ZM207.634 31.7621C207.227 31.688 206.836 31.9583 206.762 32.3658C206.688 32.7734 206.958 33.1638 207.366 33.2379L207.634 31.7621ZM233.5 32.5L234.03 33.0303C234.262 32.7983 234.317 32.4425 234.164 32.1519C234.012 31.8613 233.689 31.7034 233.366 31.7621L233.5 32.5ZM233.5 46.5L233.623 47.2398C233.91 47.192 234.143 46.983 234.222 46.7033C234.301 46.4236 234.211 46.1235 233.991 45.9332L233.5 46.5ZM207.623 45.7602C207.215 45.6921 206.828 45.9681 206.76 46.3767C206.692 46.7853 206.968 47.1717 207.377 47.2398L207.623 45.7602ZM226 40L225.47 39.4697C225.322 39.6169 225.243 39.8187 225.25 40.0267C225.258 40.2348 225.351 40.4304 225.509 40.5668L226 40ZM208.25 59.8965V30.5H206.75V59.8965H208.25ZM232.97 31.9697L225.47 39.4697L226.53 40.5303L234.03 33.0303L232.97 31.9697ZM225.509 40.5668L233.009 47.0668L233.991 45.9332L226.491 39.4332L225.509 40.5668ZM207.5 32.5C207.366 33.2379 207.366 33.2379 207.366 33.2379C207.366 33.238 207.366 33.238 207.366 33.238C207.367 33.2381 207.367 33.2381 207.368 33.2382C207.368 33.2384 207.37 33.2386 207.371 33.2389C207.374 33.2394 207.379 33.2402 207.385 33.2413C207.396 33.2433 207.413 33.2463 207.435 33.2501C207.479 33.2578 207.544 33.2689 207.628 33.2829C207.797 33.3109 208.046 33.3506 208.367 33.3982C209.008 33.4932 209.94 33.6195 211.107 33.7457C213.44 33.9979 216.718 34.25 220.5 34.25V32.75C216.782 32.75 213.56 32.5021 211.268 32.2543C210.123 32.1305 209.21 32.0068 208.586 31.9143C208.274 31.8681 208.035 31.8297 207.874 31.8031C207.793 31.7897 207.732 31.7793 207.692 31.7723C207.672 31.7688 207.657 31.7662 207.647 31.7645C207.643 31.7636 207.639 31.763 207.637 31.7626C207.636 31.7624 207.635 31.7622 207.634 31.7622C207.634 31.7621 207.634 31.7621 207.634 31.7621C207.634 31.7621 207.634 31.7621 207.634 31.7621C207.634 31.7621 207.634 31.7621 207.5 32.5ZM220.5 34.25C224.282 34.25 227.56 33.9979 229.893 33.7457C231.06 33.6195 231.992 33.4932 232.633 33.3982C232.954 33.3506 233.203 33.3109 233.372 33.2829C233.456 33.2689 233.521 33.2578 233.565 33.2501C233.587 33.2463 233.604 33.2433 233.615 33.2413C233.621 33.2402 233.626 33.2394 233.629 33.2389C233.63 33.2386 233.632 33.2384 233.632 33.2382C233.633 33.2381 233.633 33.2381 233.634 33.238C233.634 33.238 233.634 33.238 233.634 33.2379C233.634 33.2379 233.634 33.2379 233.5 32.5C233.366 31.7621 233.366 31.7621 233.366 31.7621C233.366 31.7621 233.366 31.7621 233.366 31.7621C233.366 31.7621 233.366 31.7621 233.366 31.7622C233.365 31.7622 233.364 31.7624 233.363 31.7626C233.361 31.763 233.357 31.7636 233.353 31.7645C233.343 31.7662 233.328 31.7688 233.308 31.7723C233.268 31.7793 233.207 31.7897 233.126 31.8031C232.965 31.8297 232.726 31.8681 232.414 31.9143C231.79 32.0068 230.877 32.1305 229.732 32.2543C227.44 32.5021 224.218 32.75 220.5 32.75V34.25ZM233.5 46.5C233.377 45.7602 233.377 45.7602 233.377 45.7602C233.377 45.7602 233.377 45.7602 233.377 45.7602C233.377 45.7602 233.376 45.7603 233.376 45.7603C233.376 45.7604 233.375 45.7605 233.373 45.7607C233.371 45.7612 233.367 45.7618 233.361 45.7627C233.351 45.7645 233.334 45.7672 233.312 45.7707C233.268 45.7778 233.202 45.7883 233.114 45.8017C232.94 45.8285 232.682 45.8671 232.349 45.9134C231.685 46.0062 230.725 46.1301 229.546 46.2541C227.189 46.5023 223.966 46.75 220.5 46.75V48.25C224.034 48.25 227.311 47.9977 229.704 47.7459C230.9 47.6199 231.878 47.4938 232.557 47.3991C232.896 47.3517 233.162 47.3121 233.343 47.2842C233.433 47.2703 233.503 47.2593 233.55 47.2518C233.573 47.248 233.591 47.245 233.604 47.243C233.61 47.242 233.615 47.2412 233.618 47.2407C233.619 47.2404 233.621 47.2402 233.622 47.2401C233.622 47.24 233.622 47.2399 233.623 47.2399C233.623 47.2399 233.623 47.2398 233.623 47.2398C233.623 47.2398 233.623 47.2398 233.5 46.5ZM220.5 46.75C217.034 46.75 213.811 46.5023 211.454 46.2541C210.275 46.1301 209.315 46.0062 208.651 45.9134C208.318 45.8671 208.06 45.8285 207.886 45.8017C207.798 45.7883 207.732 45.7778 207.688 45.7707C207.666 45.7672 207.649 45.7645 207.639 45.7627C207.633 45.7618 207.629 45.7612 207.627 45.7607C207.625 45.7605 207.624 45.7604 207.624 45.7603C207.624 45.7603 207.623 45.7602 207.623 45.7602C207.623 45.7602 207.623 45.7602 207.623 45.7602C207.623 45.7602 207.623 45.7602 207.5 46.5C207.377 47.2398 207.377 47.2398 207.377 47.2398C207.377 47.2398 207.377 47.2399 207.377 47.2399C207.378 47.2399 207.378 47.24 207.378 47.2401C207.379 47.2402 207.381 47.2404 207.382 47.2407C207.385 47.2412 207.39 47.242 207.396 47.243C207.409 47.245 207.427 47.248 207.45 47.2518C207.497 47.2593 207.567 47.2703 207.657 47.2842C207.838 47.3121 208.104 47.3517 208.443 47.3991C209.122 47.4938 210.1 47.6199 211.296 47.7459C213.689 47.9977 216.966 48.25 220.5 48.25V46.75Z" fill="#071D2B"/>
<path d="M208.75 109.5C208.75 110.19 208.19 110.75 207.5 110.75V112.25C209.019 112.25 210.25 111.019 210.25 109.5H208.75ZM207.5 110.75C206.81 110.75 206.25 110.19 206.25 109.5H204.75C204.75 111.019 205.981 112.25 207.5 112.25V110.75ZM206.25 109.5C206.25 108.81 206.81 108.25 207.5 108.25V106.75C205.981 106.75 204.75 107.981 204.75 109.5H206.25ZM207.5 108.25C208.19 108.25 208.75 108.81 208.75 109.5H210.25C210.25 107.981 209.019 106.75 207.5 106.75V108.25Z" fill="#071D2B"/>
<path d="M208.75 154.5C208.75 155.19 208.19 155.75 207.5 155.75V157.25C209.019 157.25 210.25 156.019 210.25 154.5H208.75ZM207.5 155.75C206.81 155.75 206.25 155.19 206.25 154.5H204.75C204.75 156.019 205.981 157.25 207.5 157.25V155.75ZM206.25 154.5C206.25 153.81 206.81 153.25 207.5 153.25V151.75C205.981 151.75 204.75 152.981 204.75 154.5H206.25ZM207.5 153.25C208.19 153.25 208.75 153.81 208.75 154.5H210.25C210.25 152.981 209.019 151.75 207.5 151.75V153.25Z" fill="#071D2B"/>
<path d="M198.75 154.5C198.75 155.19 198.19 155.75 197.5 155.75V157.25C199.019 157.25 200.25 156.019 200.25 154.5H198.75ZM197.5 155.75C196.81 155.75 196.25 155.19 196.25 154.5H194.75C194.75 156.019 195.981 157.25 197.5 157.25V155.75ZM196.25 154.5C196.25 153.81 196.81 153.25 197.5 153.25V151.75C195.981 151.75 194.75 152.981 194.75 154.5H196.25ZM197.5 153.25C198.19 153.25 198.75 153.81 198.75 154.5H200.25C200.25 152.981 199.019 151.75 197.5 151.75V153.25Z" fill="#071D2B"/>
<path d="M188.75 154.5C188.75 155.19 188.19 155.75 187.5 155.75V157.25C189.019 157.25 190.25 156.019 190.25 154.5H188.75ZM187.5 155.75C186.81 155.75 186.25 155.19 186.25 154.5H184.75C184.75 156.019 185.981 157.25 187.5 157.25V155.75ZM186.25 154.5C186.25 153.81 186.81 153.25 187.5 153.25V151.75C185.981 151.75 184.75 152.981 184.75 154.5H186.25ZM187.5 153.25C188.19 153.25 188.75 153.81 188.75 154.5H190.25C190.25 152.981 189.019 151.75 187.5 151.75V153.25Z" fill="#071D2B"/>
<path d="M228.75 154.5C228.75 155.19 228.19 155.75 227.5 155.75V157.25C229.019 157.25 230.25 156.019 230.25 154.5H228.75ZM227.5 155.75C226.81 155.75 226.25 155.19 226.25 154.5H224.75C224.75 156.019 225.981 157.25 227.5 157.25V155.75ZM226.25 154.5C226.25 153.81 226.81 153.25 227.5 153.25V151.75C225.981 151.75 224.75 152.981 224.75 154.5H226.25ZM227.5 153.25C228.19 153.25 228.75 153.81 228.75 154.5H230.25C230.25 152.981 229.019 151.75 227.5 151.75V153.25Z" fill="#071D2B"/>
<path d="M218.75 154.5C218.75 155.19 218.19 155.75 217.5 155.75V157.25C219.019 157.25 220.25 156.019 220.25 154.5H218.75ZM217.5 155.75C216.81 155.75 216.25 155.19 216.25 154.5H214.75C214.75 156.019 215.981 157.25 217.5 157.25V155.75ZM216.25 154.5C216.25 153.81 216.81 153.25 217.5 153.25V151.75C215.981 151.75 214.75 152.981 214.75 154.5H216.25ZM217.5 153.25C218.19 153.25 218.75 153.81 218.75 154.5H220.25C220.25 152.981 219.019 151.75 217.5 151.75V153.25Z" fill="#071D2B"/>
<path d="M166.5 236.5V226C166.5 224.619 165.381 223.5 164 223.5C162.619 223.5 161.5 224.619 161.5 226L161.5 236.5H166.5Z" stroke="#071D2B" stroke-width="1.5" stroke-miterlimit="10" stroke-linecap="round" stroke-linejoin="round"/>
<path d="M252.5 236.5V226C252.5 224.619 251.381 223.5 250 223.5C248.619 223.5 247.5 224.619 247.5 226L247.5 236.5H252.5Z" stroke="#071D2B" stroke-width="1.5" stroke-miterlimit="10" stroke-linecap="round" stroke-linejoin="round"/>
<path d="M303.691 197.5H303.398C300.698 197.5 298.5 199.828 298.5 202.711V215.5H308.579V202.711C308.588 199.828 306.4 197.5 303.691 197.5Z" stroke="#071D2B" stroke-width="1.5" stroke-miterlimit="10" stroke-linecap="round" stroke-linejoin="round"/>
<path d="M113.691 197.5H113.397C110.698 197.5 108.5 199.828 108.5 202.711V215.5H118.578V202.711C118.588 199.828 116.4 197.5 113.691 197.5Z" stroke="#071D2B" stroke-width="1.5" stroke-miterlimit="10" stroke-linecap="round" stroke-linejoin="round"/>
<path d="M231.102 269.56V250.86C231.102 244.27 228.692 238.3 224.622 233.99C220.562 229.66 214.852 227 208.262 227C195.082 227 185.422 237.69 185.422 250.87V268.5" stroke="#071D2B" stroke-width="1.5" stroke-miterlimit="10" stroke-linecap="round" stroke-linejoin="round"/>
<path d="M109.5 146.75C109.086 146.75 108.75 147.086 108.75 147.5C108.75 147.914 109.086 148.25 109.5 148.25V146.75ZM119.5 148.25C119.914 148.25 120.25 147.914 120.25 147.5C120.25 147.086 119.914 146.75 119.5 146.75V148.25ZM108.219 161.75C107.805 161.75 107.469 162.086 107.469 162.5C107.469 162.914 107.805 163.25 108.219 163.25V161.75ZM121.609 163.25C122.023 163.25 122.359 162.914 122.359 162.5C122.359 162.086 122.023 161.75 121.609 161.75V163.25ZM102.5 151.75C102.086 151.75 101.75 152.086 101.75 152.5C101.75 152.914 102.086 153.25 102.5 153.25V151.75ZM121.5 153.25C121.914 153.25 122.25 152.914 122.25 152.5C122.25 152.086 121.914 151.75 121.5 151.75V153.25ZM106.5 156.75C106.086 156.75 105.75 157.086 105.75 157.5C105.75 157.914 106.086 158.25 106.5 158.25V156.75ZM119.5 158.25C119.914 158.25 120.25 157.914 120.25 157.5C120.25 157.086 119.914 156.75 119.5 156.75V158.25ZM117.25 147.5C117.25 147.086 116.914 146.75 116.5 146.75C116.085 146.75 115.75 147.086 115.75 147.5H117.25ZM115.75 152.5C115.75 152.914 116.085 153.25 116.5 153.25C116.914 153.25 117.25 152.914 117.25 152.5H115.75ZM117.25 157.5C117.25 157.086 116.914 156.75 116.5 156.75C116.085 156.75 115.75 157.086 115.75 157.5H117.25ZM115.75 162.5C115.75 162.914 116.085 163.25 116.5 163.25C116.914 163.25 117.25 162.914 117.25 162.5H115.75ZM112.248 152.5C112.248 152.086 111.912 151.75 111.498 151.75C111.084 151.75 110.748 152.086 110.748 152.5H112.248ZM110.748 157.5C110.748 157.914 111.084 158.25 111.498 158.25C111.912 158.25 112.248 157.914 112.248 157.5H110.748ZM109.5 148.25H119.5V146.75H109.5V148.25ZM108.219 163.25H121.609V161.75H108.219V163.25ZM102.5 153.25H121.5V151.75H102.5V153.25ZM106.5 158.25H119.5V156.75H106.5V158.25ZM115.75 147.5V152.5H117.25V147.5H115.75ZM115.75 157.5V162.5H117.25V157.5H115.75ZM110.748 152.5V157.5H112.248V152.5H110.748Z" fill="#071D2B"/>
<path d="M310.5 256.25C310.914 256.25 311.25 255.914 311.25 255.5C311.25 255.086 310.914 254.75 310.5 254.75V256.25ZM297.5 254.75C297.086 254.75 296.75 255.086 296.75 255.5C296.75 255.914 297.086 256.25 297.5 256.25V254.75ZM306.089 241.28C306.503 241.28 306.839 240.944 306.839 240.53C306.839 240.116 306.503 239.78 306.089 239.78V241.28ZM299.699 239.78C299.285 239.78 298.949 240.116 298.949 240.53C298.949 240.944 299.285 241.28 299.699 241.28V239.78ZM315.5 251.25C315.914 251.25 316.25 250.914 316.25 250.5C316.25 250.086 315.914 249.75 315.5 249.75V251.25ZM293.5 249.75C293.086 249.75 292.75 250.086 292.75 250.5C292.75 250.914 293.086 251.25 293.5 251.25V249.75ZM312.5 246.25C312.914 246.25 313.25 245.914 313.25 245.5C313.25 245.086 312.914 244.75 312.5 244.75V246.25ZM296.5 244.75C296.086 244.75 295.75 245.086 295.75 245.5C295.75 245.914 296.086 246.25 296.5 246.25V244.75ZM302.75 255.5C302.75 255.914 303.086 256.25 303.5 256.25C303.914 256.25 304.25 255.914 304.25 255.5H302.75ZM304.25 250.5C304.25 250.086 303.914 249.75 303.5 249.75C303.086 249.75 302.75 250.086 302.75 250.5H304.25ZM301.75 245.5C301.75 245.914 302.086 246.25 302.5 246.25C302.914 246.25 303.25 245.914 303.25 245.5H301.75ZM303.25 241C303.25 240.586 302.914 240.25 302.5 240.25C302.086 240.25 301.75 240.586 301.75 241H303.25ZM308.749 250.5C308.749 250.914 309.085 251.25 309.499 251.25C309.913 251.25 310.249 250.914 310.249 250.5H308.749ZM310.249 245.5C310.249 245.086 309.913 244.75 309.499 244.75C309.085 244.75 308.749 245.086 308.749 245.5H310.249ZM310.5 254.75H297.5V256.25H310.5V254.75ZM306.089 239.78H299.699V241.28H306.089V239.78ZM315.5 249.75H293.5V251.25H315.5V249.75ZM312.5 244.75H296.5V246.25H312.5V244.75ZM304.25 255.5V250.5H302.75V255.5H304.25ZM303.25 245.5V241H301.75V245.5H303.25ZM310.249 250.5V245.5H308.749V250.5H310.249Z" fill="#071D2B"/>
<path d="M282.893 79.9401C278.023 79.9501 277.773 76.1401 278.113 75.3101C281.183 67.9701 287.583 71.6901 289.333 69.7501C290.233 68.7401 290.513 68.6001 291.573 67.8001C295.653 64.7101 298.503 71.1001 301.633 67.6201C303.153 65.9201 308.313 65.8601 309.583 69.9801C310.713 73.7001 313.653 71.7401 315.923 73.4601C317.773 74.8601 320.043 76.6701 318.203 78.8901C316.723 80.6701 312.703 80.0001 309.803 79.9201C298.733 79.5901 293.933 79.9301 282.893 79.9401Z" stroke="#071D2B" stroke-width="1.5" stroke-miterlimit="10" stroke-linecap="round" stroke-linejoin="round"/>
<path d="M58 78V81.9062M58 86V90M64 84H60.0938M55.9062 84H52" stroke="#071D2B" stroke-width="1.5" stroke-miterlimit="10" stroke-linecap="round" stroke-linejoin="round"/>
<path d="M368.502 164.5C370.159 164.5 371.502 163.157 371.502 161.5C371.502 159.843 370.159 158.5 368.502 158.5C366.845 158.5 365.502 159.843 365.502 161.5C365.502 163.157 366.845 164.5 368.502 164.5Z" stroke="#071D2B" stroke-width="1.5" stroke-miterlimit="10" stroke-linecap="round" stroke-linejoin="round"/>
<path d="M112.5 54.5C108.81 54.5 108.961 52.1086 109.5 50.5C110.758 46.7501 116.451 48.1301 117.921 46.7501C118.468 46.211 119.056 45.7161 119.681 45.2701C122.911 42.9701 124.751 47.8601 127.251 45.1801C128.451 43.8901 132.321 43.8901 133.061 47.0301C133.711 49.8001 137.315 48.6382 138 50.5C138.954 53.0915 135.394 54.5 132.5 54.5C132.5 54.5 119.348 54.5 112.5 54.5Z" stroke="#071D2B" stroke-width="1.5" stroke-linecap="round" stroke-linejoin="round"/>
</svg>
