<svg width="416" height="312" viewBox="0 0 416 312" fill="none" xmlns="http://www.w3.org/2000/svg">
<path opacity="0.5" d="M249.523 62.526C249.861 58.0431 268.536 58.4033 268.536 58.4033C268.536 58.4033 283.565 60.1869 283.226 64.6698C282.888 69.1527 285.216 70.8022 267.607 70.711C255.255 70.6471 249.185 67.0089 249.523 62.526Z" fill="#0070F6"/>
<path d="M183.593 274L156.46 274C154.597 274 153.615 271.545 154.899 270.194C159.823 265.013 168.828 254.344 178.5 237C191.138 214.339 197.669 190.562 198.714 186.581C198.816 186.194 199.017 185.853 199.304 185.576C200.59 184.339 202.711 185.13 202.829 186.91C203.413 195.75 204.4 216.385 202.5 235C201.292 246.836 199.501 256.339 197.972 263C196.445 269.653 190.419 274 183.593 274Z" fill="#FF9780"/>
<path d="M316.42 118.762C309.132 122.658 303.371 121.862 303.5 129.5C303.568 133.512 305.472 136.799 309.5 138.5C312.597 139.807 313.463 136.778 317.351 137.03C321.24 137.283 324.708 139.114 327.345 137.532C332.54 134.415 333.227 130.884 333.147 126.16C333.031 119.34 325.841 113.725 316.42 118.762Z" fill="#BBED58"/>
<path opacity="0.5" d="M150.065 86.4273C149.991 82.9356 160.105 83.1527 160.105 83.1527C160.105 83.1527 166.53 83.5696 166.604 87.0613C166.678 90.5529 165.397 89.3846 160.235 91.4966C153.904 94.0873 150.139 89.919 150.065 86.4273Z" fill="#0070F6"/>
<path d="M328.512 215.448C325.988 217.55 325.321 218.758 327.695 221.609C330.069 224.46 331.756 224.11 334.28 222.009C336.803 219.907 337.722 218.087 335.348 215.236C332.974 212.385 331.036 213.346 328.512 215.448Z" fill="#FFDDBF"/>
<path d="M124.008 187.942C125.231 189.516 127.256 191.55 130.185 189.273C133.115 186.997 132.039 184.046 130.816 182.472C129.592 180.897 128.255 180.497 125.325 182.774C122.396 185.05 122.784 186.367 124.008 187.942Z" fill="#BBED58"/>
<path d="M96.4985 279.5C96.4985 279.5 195.309 279.5 319.496 279.5" stroke="#071D2B" stroke-width="1.5" stroke-miterlimit="10" stroke-linecap="round" stroke-linejoin="round"/>
<path d="M319.499 279.5C319.499 279.5 342.637 279.5 356.5 269.5C379.273 253.074 374 213.481 346.972 201.127C317.231 187.534 291.999 199.5 253.999 211.5M143.999 237C108.499 246.5 82.1781 238.669 67.7887 228.459C40.8986 209.379 45.9991 174.425 74.2534 163.873C107.771 151.354 141.499 181.5 135.499 188.5C129.499 195.5 120.039 179.701 136.999 163.873" stroke="#071D2B" stroke-width="1.5" stroke-miterlimit="10" stroke-linecap="round" stroke-linejoin="round"/>
<path d="M318.498 150.5C318.498 153.38 319.408 156 322.538 156C325.668 156 326.498 153.38 326.498 150.5H318.498Z" stroke="#071D2B" stroke-width="1.5" stroke-linecap="round" stroke-linejoin="round"/>
<path d="M336.198 119.99C332.338 111.35 322.538 111.43 322.538 111.43C322.538 111.43 312.738 111.35 308.878 119.99C305.018 128.63 310.818 135.99 312.458 137.51C314.098 139.03 318.948 142.79 319.308 144.75C319.478 145.75 319.498 147.5 319.498 147.5H325.498C325.498 147.5 325.588 145.76 325.768 144.75C326.128 142.75 330.988 139.07 332.618 137.51C334.248 135.95 340.068 128.63 336.198 119.99Z" stroke="#071D2B" stroke-width="1.5" stroke-linecap="round" stroke-linejoin="round"/>
<path d="M323.478 146.74C323.848 144.68 325.538 136 327.118 131.86C328.898 127.19 329.788 115.99 322.928 111.45" stroke="#071D2B" stroke-width="1.5" stroke-linecap="round" stroke-linejoin="round"/>
<path d="M322.128 111.45C315.268 115.99 316.128 127.19 317.938 131.86C319.518 136 321.208 144.68 321.578 146.74" stroke="#071D2B" stroke-width="1.5" stroke-linecap="round" stroke-linejoin="round"/>
<path d="M325.498 147.5V150.5" stroke="#071D2B" stroke-width="1.5" stroke-linecap="round" stroke-linejoin="round"/>
<path d="M319.498 147.5V150.5" stroke="#071D2B" stroke-width="1.5" stroke-linecap="round" stroke-linejoin="round"/>
<path d="M91.7238 115.357C91.8031 114.95 92.1969 114.685 92.6035 114.764C93.01 114.843 93.2753 115.237 93.196 115.644L91.7238 115.357ZM72.4624 128.25C72.0482 128.25 71.7124 127.914 71.7124 127.5C71.7124 127.086 72.0482 126.75 72.4624 126.75V128.25ZM71.9361 128.037C71.6398 127.747 71.6342 127.272 71.9236 126.976C72.2131 126.68 72.6879 126.674 72.9842 126.964L71.9361 128.037ZM74.4609 113.5L74.0492 114.127C73.7724 113.945 73.6476 113.603 73.7421 113.286C73.8366 112.969 74.1281 112.751 74.4592 112.75L74.4609 113.5ZM92.0054 114.906C92.3336 114.653 92.8045 114.714 93.0571 115.043C93.3098 115.371 93.2485 115.842 92.9202 116.095L92.0054 114.906ZM92.7118 99.4575C92.7354 99.044 93.0898 98.7278 93.5033 98.7514C93.9168 98.775 94.233 99.1294 94.2094 99.5429L92.7118 99.4575ZM75.4609 101.25C75.0467 101.25 74.7109 100.914 74.7109 100.5C74.7109 100.086 75.0467 99.75 75.4609 99.75V101.25ZM97.7109 70.5C97.7109 70.0858 98.0467 69.75 98.4609 69.75C98.8752 69.75 99.2109 70.0858 99.2109 70.5H97.7109ZM74.9598 101.057C74.6524 100.779 74.6283 100.305 74.9059 99.9975C75.1836 99.6901 75.6578 99.666 75.9652 99.9436L74.9598 101.057ZM92.8796 99.0283C93.1403 98.7063 93.6125 98.6567 93.9345 98.9173C94.2564 99.178 94.306 99.6503 94.0454 99.9722L92.8796 99.0283ZM96.0157 128.391C96.3735 128.183 96.8327 128.303 97.0415 128.661C97.2503 129.019 97.1295 129.478 96.7717 129.687L96.0157 128.391ZM93.196 115.644C92.3494 119.985 89.0061 123.138 85.0402 125.185C81.0658 127.237 76.34 128.25 72.4624 128.25V126.75C76.1148 126.75 80.6028 125.788 84.3521 123.852C88.1099 121.912 91.0004 119.066 91.7238 115.357L93.196 115.644ZM74.8727 112.873C77.5594 114.638 80.5643 116.157 83.5453 116.722C86.5035 117.283 89.411 116.903 92.0054 114.906L92.9202 116.095C89.9146 118.408 86.5461 118.818 83.2659 118.196C80.0085 117.578 76.8124 115.942 74.0492 114.127L74.8727 112.873ZM74.4592 112.75C78.5965 112.74 83.0737 111.511 86.5599 109.218C90.0385 106.931 92.4738 103.629 92.7118 99.4575L94.2094 99.5429C93.9373 104.312 91.1429 108 87.3841 110.472C83.633 112.939 78.8653 114.24 74.4627 114.25L74.4592 112.75ZM75.4609 99.75C81.8202 99.75 87.3722 95.3289 91.3813 89.3355C95.3823 83.3543 97.7109 75.997 97.7109 70.5H99.2109C99.2109 76.343 96.7646 83.9857 92.6281 90.1695C88.4997 96.3411 82.5517 101.25 75.4609 101.25V99.75ZM75.9652 99.9436C77.9629 101.748 81.1776 102.797 84.4471 102.73C87.7092 102.664 90.8863 101.49 92.8796 99.0283L94.0454 99.9722C91.6987 102.87 88.0458 104.157 84.4779 104.23C80.9173 104.303 77.3021 103.172 74.9598 101.057L75.9652 99.9436ZM96.7717 129.687C93.3252 131.698 88.4348 132.546 83.802 132.289C79.1844 132.032 74.6272 130.665 71.9361 128.037L72.9842 126.964C75.3009 129.226 79.4289 130.544 83.8852 130.791C88.3265 131.038 92.8989 130.21 96.0157 128.391L96.7717 129.687Z" fill="#071D2B"/>
<path d="M100.5 240L100.449 129" stroke="#071D2B" stroke-width="1.5" stroke-miterlimit="10" stroke-linecap="round" stroke-linejoin="round"/>
<path d="M105.197 115.357C105.118 114.95 104.724 114.685 104.317 114.764C103.911 114.843 103.646 115.237 103.725 115.644L105.197 115.357ZM124.459 128.25C124.873 128.25 125.209 127.914 125.209 127.5C125.209 127.086 124.873 126.75 124.459 126.75V128.25ZM124.985 128.037C125.281 127.747 125.287 127.272 124.997 126.976C124.708 126.68 124.233 126.674 123.937 126.964L124.985 128.037ZM122.46 113.5L122.872 114.127C123.148 113.945 123.273 113.603 123.179 113.286C123.084 112.969 122.793 112.751 122.462 112.75L122.46 113.5ZM104.916 114.906C104.587 114.653 104.116 114.714 103.864 115.043C103.611 115.371 103.672 115.842 104.001 116.095L104.916 114.906ZM104.209 99.4575C104.186 99.044 103.831 98.7278 103.418 98.7514C103.004 98.775 102.688 99.1294 102.712 99.5429L104.209 99.4575ZM121.46 101.25C121.874 101.25 122.21 100.914 122.21 100.5C122.21 100.086 121.874 99.75 121.46 99.75V101.25ZM99.21 70.5C99.21 70.0858 98.8742 69.75 98.46 69.75C98.0457 69.75 97.71 70.0858 97.71 70.5H99.21ZM121.961 101.057C122.269 100.779 122.293 100.305 122.015 99.9975C121.737 99.6901 121.263 99.666 120.956 99.9436L121.961 101.057ZM104.041 99.0283C103.781 98.7063 103.308 98.6567 102.986 98.9173C102.665 99.178 102.615 99.6503 102.876 99.9722L104.041 99.0283ZM100.905 128.391C100.547 128.183 100.088 128.303 99.8794 128.661C99.6706 129.019 99.7914 129.478 100.149 129.687L100.905 128.391ZM103.725 115.644C104.572 119.985 107.915 123.138 111.881 125.185C115.855 127.237 120.581 128.25 124.459 128.25V126.75C120.806 126.75 116.318 125.788 112.569 123.852C108.811 121.912 105.921 119.066 105.197 115.357L103.725 115.644ZM122.048 112.873C119.361 114.638 116.357 116.157 113.376 116.722C110.417 117.283 107.51 116.903 104.916 114.906L104.001 116.095C107.006 118.408 110.375 118.818 113.655 118.196C116.912 117.578 120.108 115.942 122.872 114.127L122.048 112.873ZM122.462 112.75C118.324 112.74 113.847 111.511 110.361 109.218C106.882 106.931 104.447 103.629 104.209 99.4575L102.712 99.5429C102.984 104.312 105.778 108 109.537 110.472C113.288 112.939 118.056 114.24 122.458 114.25L122.462 112.75ZM121.46 99.75C115.101 99.75 109.549 95.3289 105.54 89.3355C101.539 83.3543 99.21 75.997 99.21 70.5H97.71C97.71 76.343 100.156 83.9857 104.293 90.1695C108.421 96.3411 114.369 101.25 121.46 101.25V99.75ZM120.956 99.9436C118.958 101.748 115.743 102.797 112.474 102.73C109.212 102.664 106.035 101.49 104.041 99.0283L102.876 99.9722C105.222 102.87 108.875 104.157 112.443 104.23C116.004 104.303 119.619 103.172 121.961 101.057L120.956 99.9436ZM100.149 129.687C103.596 131.698 108.486 132.546 113.119 132.289C117.737 132.032 122.294 130.665 124.985 128.037L123.937 126.964C121.62 129.226 117.492 130.544 113.036 130.791C108.594 131.038 104.022 130.21 100.905 128.391L100.149 129.687Z" fill="#071D2B"/>
<path d="M96.4727 239L96.4727 129" stroke="#071D2B" stroke-width="1.5" stroke-miterlimit="10" stroke-linecap="round" stroke-linejoin="round"/>
<path d="M90.4766 145.5H96.4766" stroke="#071D2B" stroke-width="1.5" stroke-miterlimit="10" stroke-linecap="round" stroke-linejoin="round"/>
<path d="M100.477 189.5H105.477" stroke="#071D2B" stroke-width="1.5" stroke-miterlimit="10" stroke-linecap="round" stroke-linejoin="round"/>
<path d="M92.4766 209.5H96.4766" stroke="#071D2B" stroke-width="1.5" stroke-miterlimit="10" stroke-linecap="round" stroke-linejoin="round"/>
<path d="M307.458 279.519C307.744 279.818 308.219 279.828 308.518 279.542C308.817 279.255 308.827 278.78 308.541 278.481L307.458 279.519ZM207.999 127L208.7 126.733C208.571 126.395 208.219 126.197 207.863 126.262C207.507 126.328 207.248 126.639 207.249 127.001L207.999 127ZM244.542 279.323C244.721 279.697 245.169 279.855 245.542 279.677C245.916 279.498 246.075 279.051 245.896 278.677L244.542 279.323ZM279.671 279.534C279.966 279.825 280.441 279.821 280.732 279.526C281.022 279.231 281.019 278.756 280.724 278.466L279.671 279.534ZM308.541 278.481C267.151 235.287 230.146 183.034 208.7 126.733L207.298 127.267C228.834 183.803 265.969 236.222 307.458 279.519L308.541 278.481ZM207.249 127.001C207.336 178.962 222.193 232.511 244.542 279.323L245.896 278.677C223.62 232.018 208.836 178.689 208.749 126.999L207.249 127.001ZM207.255 127.094C213.685 177.867 242.166 242.605 279.671 279.534L280.724 278.466C243.494 241.807 215.138 177.398 208.743 126.906L207.255 127.094Z" fill="#071D2B"/>
<path d="M108.541 279.518C108.255 279.818 107.78 279.828 107.481 279.542C107.181 279.256 107.171 278.781 107.457 278.482L108.541 279.518ZM206.999 127L206.298 126.734C206.427 126.395 206.779 126.197 207.135 126.262C207.491 126.328 207.75 126.639 207.749 127.001L206.999 127ZM171.109 279.322C170.93 279.696 170.483 279.855 170.109 279.677C169.735 279.499 169.576 279.051 169.754 278.678L171.109 279.322ZM136.175 279.534C135.88 279.825 135.405 279.822 135.114 279.527C134.823 279.232 134.826 278.757 135.121 278.466L136.175 279.534ZM107.457 278.482C148.62 235.42 184.966 182.872 206.298 126.734L207.7 127.266C186.282 183.631 149.811 236.345 108.541 279.518L107.457 278.482ZM207.749 127.001C207.662 178.803 193.34 232.643 171.109 279.322L169.754 278.678C191.908 232.162 206.163 178.541 206.249 126.999L207.749 127.001ZM207.743 127.094C201.348 177.71 173.482 242.709 136.175 279.534L135.121 278.466C172.146 241.92 199.894 177.254 206.255 126.906L207.743 127.094Z" fill="#071D2B"/>
<path d="M207.499 132.896V101.5" stroke="#071D2B" stroke-width="1.5" stroke-miterlimit="10" stroke-linecap="round" stroke-linejoin="round"/>
<path d="M314.635 266.049L314.906 265.35L314.635 266.049ZM317.468 268.521L318.17 268.783L317.468 268.521ZM313.737 268.448L314.008 267.748L313.737 268.448ZM310.904 265.976L311.607 266.239L310.904 265.976ZM314.411 268.71C314.559 268.323 314.364 267.89 313.977 267.742C313.59 267.595 313.157 267.789 313.009 268.176L314.411 268.71ZM308.798 279.233C308.65 279.62 308.844 280.053 309.232 280.201C309.619 280.348 310.052 280.154 310.199 279.767L308.798 279.233ZM314.364 266.748C315.21 267.076 315.899 267.488 316.331 267.865C316.549 268.055 316.67 268.21 316.725 268.31C316.781 268.415 316.722 268.372 316.765 268.258L318.17 268.783C318.337 268.338 318.213 267.909 318.044 267.597C317.874 267.282 317.611 266.992 317.317 266.735C316.723 266.217 315.872 265.724 314.906 265.35L314.364 266.748ZM316.765 268.258C316.809 268.14 316.885 268.144 316.781 268.182C316.679 268.219 316.49 268.252 316.204 268.246C315.638 268.235 314.855 268.077 314.008 267.748L313.466 269.147C314.432 269.521 315.391 269.731 316.174 269.746C316.563 269.753 316.952 269.714 317.289 269.593C317.624 269.472 318.002 269.232 318.17 268.783L316.765 268.258ZM314.008 267.748C313.162 267.42 312.473 267.008 312.041 266.632C311.823 266.441 311.702 266.287 311.647 266.186C311.591 266.082 311.65 266.124 311.607 266.239L310.202 265.713C310.035 266.159 310.159 266.588 310.328 266.9C310.498 267.215 310.761 267.505 311.055 267.762C311.649 268.28 312.5 268.773 313.466 269.147L314.008 267.748ZM311.607 266.239C311.563 266.356 311.487 266.353 311.591 266.315C311.693 266.278 311.882 266.245 312.168 266.251C312.734 266.262 313.517 266.42 314.364 266.748L314.906 265.35C313.94 264.975 312.981 264.766 312.197 264.751C311.809 264.743 311.42 264.782 311.083 264.904C310.748 265.024 310.37 265.265 310.202 265.713L311.607 266.239ZM313.009 268.176L308.798 279.233L310.199 279.767L314.411 268.71L313.009 268.176Z" fill="#071D2B"/>
<path d="M102.362 266.049L102.091 265.35L102.362 266.049ZM99.5295 268.521L98.827 268.783L99.5295 268.521ZM103.26 268.448L102.989 267.748L103.26 268.448ZM106.093 265.976L105.39 266.239L106.093 265.976ZM102.586 268.71C102.438 268.323 102.633 267.89 103.02 267.742C103.407 267.595 103.84 267.789 103.988 268.176L102.586 268.71ZM108.199 279.233C108.347 279.62 108.153 280.053 107.766 280.201C107.378 280.348 106.945 280.154 106.798 279.767L108.199 279.233ZM102.633 266.748C101.787 267.076 101.098 267.488 100.666 267.865C100.448 268.055 100.327 268.21 100.272 268.31C100.216 268.415 100.275 268.372 100.232 268.258L98.827 268.783C98.6602 268.338 98.7846 267.909 98.9529 267.597C99.1233 267.282 99.3859 266.992 99.6803 266.735C100.274 266.217 101.125 265.724 102.091 265.35L102.633 266.748ZM100.232 268.258C100.188 268.14 100.112 268.144 100.216 268.182C100.318 268.219 100.507 268.252 100.793 268.246C101.359 268.235 102.142 268.077 102.989 267.748L103.531 269.147C102.565 269.521 101.607 269.731 100.823 269.746C100.434 269.753 100.045 269.714 99.708 269.593C99.3729 269.472 98.9949 269.232 98.827 268.783L100.232 268.258ZM102.989 267.748C103.835 267.42 104.524 267.008 104.956 266.632C105.174 266.441 105.295 266.287 105.35 266.186C105.406 266.082 105.347 266.124 105.39 266.239L106.795 265.713C106.962 266.159 106.838 266.588 106.669 266.9C106.499 267.215 106.236 267.505 105.942 267.762C105.348 268.28 104.497 268.773 103.531 269.147L102.989 267.748ZM105.39 266.239C105.434 266.356 105.511 266.353 105.406 266.315C105.304 266.278 105.115 266.245 104.829 266.251C104.263 266.262 103.48 266.42 102.633 266.748L102.091 265.35C103.057 264.975 104.016 264.766 104.8 264.751C105.188 264.743 105.577 264.782 105.914 264.904C106.249 265.024 106.627 265.265 106.795 265.713L105.39 266.239ZM103.988 268.176L108.199 279.233L106.798 279.767L102.586 268.71L103.988 268.176Z" fill="#071D2B"/>
<path d="M207.499 101.5C207.499 101.5 212.999 102.5 220.499 102.5C227.999 102.5 233.499 101.5 233.499 101.5L225.999 109L233.499 115.5C233.499 115.5 227.499 116.5 220.499 116.5C213.499 116.5 207.499 115.5 207.499 115.5" stroke="#071D2B" stroke-width="1.5" stroke-miterlimit="10" stroke-linecap="round" stroke-linejoin="round"/>
<path d="M245.251 64.9906C245.251 64.9906 236.47 65.2102 239.719 58.5037C243.177 51.3681 251.198 55.6506 253.549 53.3153C254.794 52.0179 254.932 50.7205 257.698 49.4232C262.553 47.1462 267.241 55.0017 271.528 50.7203C273.602 48.6445 279.826 48.2546 281.209 53.3143C282.453 57.9849 286.257 55.5904 289.507 57.2063C291.123 58.0103 293.379 60.32 290.889 63.0445C288.815 65.2501 281.209 64.9906 281.209 64.9906L245.251 64.9906Z" stroke="#071D2B" stroke-width="1.5" stroke-miterlimit="10" stroke-linecap="round" stroke-linejoin="round"/>
<path d="M276.5 157.5V161.406M276.5 165.5V169.5M282.5 163.5H278.594M274.406 163.5H270.5" stroke="#071D2B" stroke-width="1.5" stroke-miterlimit="10" stroke-linecap="round" stroke-linejoin="round"/>
<path d="M335.5 219.5C337.157 219.5 338.5 218.157 338.5 216.5C338.5 214.843 337.157 213.5 335.5 213.5C333.843 213.5 332.5 214.843 332.5 216.5C332.5 218.157 333.843 219.5 335.5 219.5Z" stroke="#071D2B" stroke-width="1.5" stroke-miterlimit="10" stroke-linecap="round" stroke-linejoin="round"/>
<path d="M149.497 87.5C145.807 87.5 145.957 85.1086 146.497 83.5C147.754 79.7501 153.448 81.1301 154.918 79.7501C155.464 79.211 156.053 78.7161 156.678 78.2701C159.908 75.9701 161.748 80.8601 164.248 78.1801C165.448 76.8901 169.318 76.8901 170.058 80.0301C170.708 82.8001 174.312 81.6382 174.997 83.5C175.95 86.0915 172.39 87.5 169.497 87.5C169.497 87.5 156.345 87.5 149.497 87.5Z" stroke="#071D2B" stroke-width="1.5" stroke-linecap="round" stroke-linejoin="round"/>
</svg>
