<svg width="416" height="312" viewBox="0 0 416 312" fill="none" xmlns="http://www.w3.org/2000/svg">
<path opacity="0.5" d="M280.625 41.554C280.618 37.0584 267.068 36.0336 267.068 36.0336C267.068 36.0336 256.085 36.6986 256.092 41.1942C256.099 45.6898 254.325 47.1623 267.088 48.3763C276.041 49.2279 280.632 46.0496 280.625 41.554Z" fill="#0070F6"/>
<path d="M208.973 181.762C206.022 180.32 204.199 182.392 202.757 185.343C201.315 188.294 202.365 189.606 205.316 191.048C208.267 192.49 210.262 192.666 211.704 189.716C213.146 186.765 211.923 183.204 208.973 181.762Z" fill="#FFDDBF"/>
<path d="M206.875 113.364C207.295 114.974 208.788 116 210.452 116H222.369C225.122 116 226.98 113.302 225.675 110.878C223.104 106.105 218.461 99.7566 212.038 100.007C204.465 100.303 205.71 108.9 206.875 113.364Z" fill="#FF9780"/>
<path d="M37.0128 121.647C34.1414 123.241 34.367 126.296 35.45 128.247C36.533 130.197 38.3325 131.08 41.2039 129.485C44.0753 127.891 45.2396 125.363 44.1566 123.413C43.0736 121.462 40.5322 119.225 37.0128 121.647Z" fill="#BBED58"/>
<path d="M371.417 201.966C368.971 203.325 368.999 205.634 369.791 207.06C370.583 208.486 372.019 209.063 374.466 207.705C376.913 206.346 378.002 204.366 377.21 202.94C376.419 201.515 374.44 199.946 371.417 201.966Z" fill="#FFDDBF"/>
<path opacity="0.5" d="M358.096 108.89C358.019 112.699 363.627 114.013 367.924 113.788C371.509 113.6 375.982 113.404 376.06 109.595C376.138 105.787 372.079 103.818 368.138 103.332C360.735 102.418 358.174 105.082 358.096 108.89Z" fill="#0070F6"/>
<path d="M288 150H293.212C295.042 150 296.638 151.241 297.089 153.014L305.732 187.014C306.375 189.543 304.464 192 301.856 192H288C285.791 192 284 190.209 284 188V154C284 151.791 285.791 150 288 150Z" fill="#071D2B" fill-opacity="0.15"/>
<path d="M143 193H129.265C127.403 193 125.787 194.285 125.368 196.1L110.131 262.1C109.552 264.607 111.456 267 114.029 267H143C145.209 267 147 265.209 147 263V197C147 194.791 145.209 193 143 193Z" fill="#071D2B" fill-opacity="0.15"/>
<path d="M221.75 246.46C221.75 246.874 222.086 247.21 222.5 247.21C222.914 247.21 223.25 246.874 223.25 246.46H221.75ZM222.5 212.5H223.25C223.25 212.301 223.171 212.11 223.03 211.97C222.89 211.829 222.699 211.75 222.5 211.75V212.5ZM192.5 212.5L192.5 211.75C192.086 211.75 191.75 212.086 191.75 212.5H192.5ZM191.75 246.46C191.75 246.874 192.086 247.21 192.5 247.21C192.914 247.21 193.25 246.874 193.25 246.46H191.75ZM206.75 246.5C206.75 246.914 207.086 247.25 207.5 247.25C207.914 247.25 208.25 246.914 208.25 246.5H206.75ZM208.25 212.5C208.25 212.086 207.914 211.75 207.5 211.75C207.086 211.75 206.75 212.086 206.75 212.5H208.25ZM223.25 246.46V212.5H221.75V246.46H223.25ZM191.75 212.5V246.46H193.25V212.5H191.75ZM222.5 211.75L192.5 211.75L192.5 213.25L222.5 213.25V211.75ZM208.25 246.5V212.5H206.75V246.5H208.25Z" fill="#071D2B"/>
<path d="M283.504 199.5H284.254C284.254 199.086 283.918 198.75 283.504 198.75V199.5ZM277.504 199.5V198.75C277.09 198.75 276.754 199.086 276.754 199.5H277.504ZM277.504 225.5H276.754C276.754 225.914 277.09 226.25 277.504 226.25V225.5ZM283.504 225.5V226.25C283.918 226.25 284.254 225.914 284.254 225.5H283.504ZM283.504 198.75H277.504V200.25H283.504V198.75ZM276.754 199.5V225.5H278.254V199.5H276.754ZM277.504 226.25H283.504V224.75H277.504V226.25ZM284.254 225.5V199.5H282.754V225.5H284.254Z" fill="#071D2B"/>
<path d="M138.504 199.5H139.254C139.254 199.086 138.918 198.75 138.504 198.75V199.5ZM132.504 199.5V198.75C132.09 198.75 131.754 199.086 131.754 199.5H132.504ZM132.504 225.5H131.754C131.754 225.914 132.09 226.25 132.504 226.25V225.5ZM138.504 225.5V226.25C138.918 226.25 139.254 225.914 139.254 225.5H138.504ZM138.504 198.75H132.504V200.25H138.504V198.75ZM131.754 199.5V225.5H133.254V199.5H131.754ZM132.504 226.25H138.504V224.75H132.504V226.25ZM139.254 225.5V199.5H137.754V225.5H139.254Z" fill="#071D2B"/>
<path d="M103.504 141.5H102.754C102.754 141.086 103.09 140.75 103.504 140.75V141.5ZM112.504 141.5V140.75C112.918 140.75 113.254 141.086 113.254 141.5H112.504ZM112.504 147.5H113.254C113.254 147.914 112.918 148.25 112.504 148.25V147.5ZM103.504 147.5V148.25C103.09 148.25 102.754 147.914 102.754 147.5H103.504ZM97.5039 181.5H96.7539C96.7539 181.086 97.0897 180.75 97.5039 180.75V181.5ZM103.504 181.5V180.75C103.918 180.75 104.254 181.086 104.254 181.5H103.504ZM103.504 187.5H104.254C104.254 187.914 103.918 188.25 103.504 188.25V187.5ZM97.5039 187.5V188.25C97.0897 188.25 96.7539 187.914 96.7539 187.5H97.5039ZM103.504 140.75H112.504V142.25H103.504V140.75ZM113.254 141.5V147.5H111.754V141.5H113.254ZM112.504 148.25H103.504V146.75H112.504V148.25ZM102.754 147.5V141.5H104.254V147.5H102.754ZM97.5039 180.75H103.504V182.25H97.5039V180.75ZM104.254 181.5V187.5H102.754V181.5H104.254ZM103.504 188.25H97.5039V186.75H103.504V188.25ZM96.7539 187.5V181.5H98.2539V187.5H96.7539Z" fill="#071D2B"/>
<path d="M312.504 141.5H313.254C313.254 141.086 312.918 140.75 312.504 140.75V141.5ZM303.504 141.5V140.75C303.09 140.75 302.754 141.086 302.754 141.5H303.504ZM303.504 147.5H302.754C302.754 147.914 303.09 148.25 303.504 148.25V147.5ZM312.504 147.5V148.25C312.918 148.25 313.254 147.914 313.254 147.5H312.504ZM318.504 181.5H319.254C319.254 181.086 318.918 180.75 318.504 180.75V181.5ZM312.504 181.5V180.75C312.09 180.75 311.754 181.086 311.754 181.5H312.504ZM312.504 187.5H311.754C311.754 187.914 312.09 188.25 312.504 188.25V187.5ZM318.504 187.5V188.25C318.918 188.25 319.254 187.914 319.254 187.5H318.504ZM312.504 140.75H303.504V142.25H312.504V140.75ZM302.754 141.5V147.5H304.254V141.5H302.754ZM303.504 148.25H312.504V146.75H303.504V148.25ZM313.254 147.5V141.5H311.754V147.5H313.254ZM318.504 180.75H312.504V182.25H318.504V180.75ZM311.754 181.5V187.5H313.254V181.5H311.754ZM312.504 188.25H318.504V186.75H312.504V188.25ZM319.254 187.5V181.5H317.754V187.5H319.254Z" fill="#071D2B"/>
<path d="M158.5 94.5H159.25C159.25 94.0858 158.914 93.75 158.5 93.75V94.5ZM157.75 112.5C157.75 112.914 158.086 113.25 158.5 113.25C158.914 113.25 159.25 112.914 159.25 112.5H157.75ZM131.75 112.383C131.75 112.797 132.086 113.133 132.5 113.133C132.914 113.133 133.25 112.797 133.25 112.383H131.75ZM140.418 94.5C140.418 94.9142 140.754 95.25 141.168 95.25C141.582 95.25 141.918 94.9142 141.918 94.5H140.418ZM141.168 90.5V89.75C140.754 89.75 140.418 90.0858 140.418 90.5H141.168ZM157.748 94.5C157.748 94.9142 158.084 95.25 158.498 95.25C158.912 95.25 159.248 94.9142 159.248 94.5H157.748ZM131.752 102.39C132.166 102.39 132.502 102.054 132.502 101.64C132.502 101.226 132.166 100.89 131.752 100.89V102.39ZM105.422 101.64V100.89C105.008 100.89 104.672 101.226 104.672 101.64H105.422ZM105.422 104.3H104.672C104.672 104.692 104.974 105.018 105.365 105.048L105.422 104.3ZM131.695 107.048C132.108 107.079 132.468 106.77 132.5 106.357C132.531 105.944 132.222 105.584 131.809 105.552L131.695 107.048ZM140.5 95.25H158.5V93.75H140.5V95.25ZM157.75 94.5V112.5H159.25V94.5H157.75ZM133.25 112.383V102.5H131.75V112.383H133.25ZM140.5 93.75C135.668 93.75 131.75 97.6675 131.75 102.5H133.25C133.25 98.4959 136.496 95.25 140.5 95.25V93.75ZM141.918 94.5V90.5H140.418V94.5H141.918ZM141.168 91.25H154.498V89.75H141.168V91.25ZM154.498 91.25C156.293 91.25 157.748 92.7051 157.748 94.5H159.248C159.248 91.8766 157.121 89.75 154.498 89.75V91.25ZM131.752 100.89H105.422V102.39H131.752V100.89ZM104.672 101.64V104.3H106.172V101.64H104.672ZM105.365 105.048L131.695 107.048L131.809 105.552L105.479 103.552L105.365 105.048ZM147.75 103.5C147.75 104.743 146.743 105.75 145.5 105.75V107.25C147.571 107.25 149.25 105.571 149.25 103.5H147.75ZM145.5 105.75C144.257 105.75 143.25 104.743 143.25 103.5H141.75C141.75 105.571 143.429 107.25 145.5 107.25V105.75ZM143.25 103.5C143.25 102.257 144.257 101.25 145.5 101.25V99.75C143.429 99.75 141.75 101.429 141.75 103.5H143.25ZM145.5 101.25C146.743 101.25 147.75 102.257 147.75 103.5H149.25C149.25 101.429 147.571 99.75 145.5 99.75V101.25Z" fill="#071D2B"/>
<path d="M257.422 94.5H256.672C256.672 94.0858 257.008 93.75 257.422 93.75V94.5ZM258.172 112.383C258.172 112.797 257.836 113.133 257.422 113.133C257.008 113.133 256.672 112.797 256.672 112.383H258.172ZM284.172 112.383C284.172 112.797 283.836 113.133 283.422 113.133C283.008 113.133 282.672 112.797 282.672 112.383H284.172ZM275.504 94.5C275.504 94.9142 275.168 95.25 274.754 95.25C274.34 95.25 274.004 94.9142 274.004 94.5H275.504ZM274.754 90.5V89.75C275.168 89.75 275.504 90.0858 275.504 90.5H274.754ZM258.174 94.5C258.174 94.9142 257.838 95.25 257.424 95.25C257.01 95.25 256.674 94.9142 256.674 94.5H258.174ZM284.436 102.341C284.049 102.488 283.616 102.294 283.469 101.906C283.322 101.519 283.516 101.086 283.904 100.939L284.436 102.341ZM310.5 91.64L310.234 90.9389C310.464 90.8513 310.723 90.8827 310.926 91.0227C311.129 91.1627 311.25 91.3935 311.25 91.64H310.5ZM310.5 94.3H311.25C311.25 94.5939 311.078 94.8606 310.811 94.9825L310.5 94.3ZM284.481 106.982C284.104 107.154 283.659 106.988 283.488 106.611C283.316 106.234 283.482 105.789 283.859 105.618L284.481 106.982ZM275.422 95.25H257.422V93.75H275.422V95.25ZM258.172 94.5V112.383H256.672V94.5H258.172ZM282.672 112.383V102.5H284.172V112.383H282.672ZM275.422 93.75C280.254 93.75 284.172 97.6675 284.172 102.5H282.672C282.672 98.4959 279.426 95.25 275.422 95.25V93.75ZM274.004 94.5V90.5H275.504V94.5H274.004ZM274.754 91.25H261.424V89.75H274.754V91.25ZM261.424 91.25C259.629 91.25 258.174 92.7051 258.174 94.5H256.674C256.674 91.8766 258.801 89.75 261.424 89.75V91.25ZM283.904 100.939L310.234 90.9389L310.766 92.3412L284.436 102.341L283.904 100.939ZM311.25 91.64V94.3H309.75V91.64H311.25ZM310.811 94.9825L284.481 106.982L283.859 105.618L310.189 93.6176L310.811 94.9825ZM268.172 103.5C268.172 104.743 269.179 105.75 270.422 105.75V107.25C268.351 107.25 266.672 105.571 266.672 103.5H268.172ZM270.422 105.75C271.665 105.75 272.672 104.743 272.672 103.5H274.172C274.172 105.571 272.493 107.25 270.422 107.25V105.75ZM272.672 103.5C272.672 102.257 271.665 101.25 270.422 101.25V99.75C272.493 99.75 274.172 101.429 274.172 103.5H272.672ZM270.422 101.25C269.179 101.25 268.172 102.257 268.172 103.5H266.672C266.672 101.429 268.351 99.75 270.422 99.75V101.25Z" fill="#071D2B"/>
<path d="M229.5 112.5C226.246 103.168 217.622 96.5 207.5 96.5C197.378 96.5 188.754 103.168 185.5 112.5" stroke="#071D2B" stroke-width="1.5" stroke-miterlimit="10" stroke-linecap="round" stroke-linejoin="round"/>
<path d="M206.751 96C206.751 96.4142 207.087 96.75 207.501 96.75C207.915 96.75 208.251 96.4142 208.251 96H206.751ZM208.251 74.5C208.251 74.0858 207.915 73.75 207.501 73.75C207.087 73.75 206.751 74.0858 206.751 74.5H208.251ZM207.617 74.7592C207.208 74.6946 206.824 74.9739 206.759 75.383C206.695 75.7921 206.974 76.1762 207.383 76.2408L207.617 74.7592ZM224.5 75.5H225.25C225.25 75.2763 225.15 75.0643 224.978 74.9218C224.805 74.7794 224.578 74.7213 224.359 74.7634L224.5 75.5ZM224.5 85.5L224.658 86.2331C225.003 86.1586 225.25 85.8533 225.25 85.5H224.5ZM207.731 84.1699C207.337 84.0425 206.914 84.2587 206.786 84.6529C206.659 85.047 206.875 85.4698 207.269 85.5972L207.731 84.1699ZM208.251 96V74.5H206.751V96H208.251ZM223.75 75.5V85.5H225.25V75.5H223.75ZM207.383 76.2408C213.066 77.1383 218.912 77.3364 224.641 76.2366L224.359 74.7634C218.846 75.8217 213.182 75.6381 207.617 74.7592L207.383 76.2408ZM224.342 84.7669C218.992 85.9208 212.589 85.7407 207.731 84.1699L207.269 85.5972C212.411 87.2593 219.085 87.4354 224.658 86.2331L224.342 84.7669Z" fill="#071D2B"/>
<path d="M197.97 226.97C197.677 227.263 197.677 227.737 197.97 228.03C198.263 228.323 198.737 228.323 199.03 228.03L197.97 226.97ZM202.03 225.03C202.323 224.737 202.323 224.263 202.03 223.97C201.737 223.677 201.263 223.677 200.97 223.97L202.03 225.03ZM197.97 222.97C197.677 223.263 197.677 223.737 197.97 224.03C198.263 224.323 198.737 224.323 199.03 224.03L197.97 222.97ZM202.03 221.03C202.323 220.737 202.323 220.263 202.03 219.97C201.737 219.677 201.263 219.677 200.97 219.97L202.03 221.03ZM212.97 236.97C212.677 237.263 212.677 237.737 212.97 238.03C213.263 238.323 213.737 238.323 214.03 238.03L212.97 236.97ZM217.03 235.03C217.323 234.737 217.323 234.263 217.03 233.97C216.737 233.677 216.263 233.677 215.97 233.97L217.03 235.03ZM212.97 232.97C212.677 233.263 212.677 233.737 212.97 234.03C213.263 234.323 213.737 234.323 214.03 234.03L212.97 232.97ZM217.03 231.03C217.323 230.737 217.323 230.263 217.03 229.97C216.737 229.677 216.263 229.677 215.97 229.97L217.03 231.03ZM199.03 228.03L202.03 225.03L200.97 223.97L197.97 226.97L199.03 228.03ZM199.03 224.03L202.03 221.03L200.97 219.97L197.97 222.97L199.03 224.03ZM214.03 238.03L217.03 235.03L215.97 233.97L212.97 236.97L214.03 238.03ZM214.03 234.03L217.03 231.03L215.97 229.97L212.97 232.97L214.03 234.03Z" fill="#071D2B"/>
<path d="M375.499 275.5C349.724 275.5 253.499 275.5 253.499 275.5L265.684 134.156C265.862 132.088 267.593 130.5 269.669 130.5H314.476C316.49 130.5 318.189 131.997 318.444 133.995L337.999 287.5H205.999H77.9987L97.5536 133.995C97.808 131.997 99.5078 130.5 101.521 130.5H146.329C148.405 130.5 150.136 132.088 150.314 134.156L159.999 246.5H101.999L132.499 112.5H283.499L314.499 246.5H235.499V158.5C235.499 157.395 234.603 156.5 233.499 156.5H207.999H182.499C181.394 156.5 180.499 157.395 180.499 158.5V245.5C180.499 246.052 180.946 246.5 181.499 246.5H223.499C226.26 246.5 228.499 248.739 228.499 251.5V251.5C228.499 254.261 226.26 256.5 223.499 256.5H171.499C168.737 256.5 166.499 258.739 166.499 261.5V261.5C166.499 264.261 168.737 266.5 171.499 266.5H236.999C239.484 266.5 241.499 268.515 241.499 271V271C241.499 273.485 239.484 275.5 236.999 275.5H40.5" stroke="#071D2B" stroke-width="1.5" stroke-miterlimit="10" stroke-linecap="round" stroke-linejoin="round"/>
<path d="M203.172 183.5C203.172 185.847 205.075 187.75 207.422 187.75V189.25C204.246 189.25 201.672 186.676 201.672 183.5H203.172ZM207.422 187.75C209.769 187.75 211.672 185.847 211.672 183.5H213.172C213.172 186.676 210.598 189.25 207.422 189.25V187.75ZM211.672 183.5C211.672 181.153 209.769 179.25 207.422 179.25V177.75C210.598 177.75 213.172 180.324 213.172 183.5H211.672ZM207.422 179.25C205.075 179.25 203.172 181.153 203.172 183.5H201.672C201.672 180.324 204.246 177.75 207.422 177.75V179.25Z" fill="#071D2B"/>
<path d="M78.502 50.5H84.502C90.5771 50.5 95.502 55.4249 95.502 61.5V61.5V66" stroke="#071D2B" stroke-width="1.5" stroke-miterlimit="10" stroke-linecap="round" stroke-linejoin="round"/>
<path d="M59.5 44.5H97.5002" stroke="#071D2B" stroke-width="1.5" stroke-miterlimit="10" stroke-linecap="round" stroke-linejoin="round"/>
<path d="M78.502 50.5C78.502 51.9567 78.502 53.2562 78.502 54.5003C78.502 58.9186 74.9202 62.5 70.502 62.5H65.0001M78.502 50.5V45.5M78.502 50.5H71.5096C67.0871 50.5 63.502 54.0851 63.502 58.5077V58.5077C63.502 62.9302 67.0871 66.5153 71.5096 66.5153H108.502C109.607 66.5153 110.502 65.6199 110.502 64.5153V59C110.502 57.6193 109.383 56.5 108.002 56.5V56.5C106.621 56.5 105.502 57.6193 105.502 59V61.5H87.0001C83.9626 61.5 81.5001 63.9624 81.5001 67V67" stroke="#071D2B" stroke-width="1.5" stroke-miterlimit="10" stroke-linecap="round" stroke-linejoin="round"/>
<path d="M68.5 72.5H88" stroke="#071D2B" stroke-width="1.5" stroke-miterlimit="10" stroke-linecap="round" stroke-linejoin="round"/>
<path d="M81.5039 67.5V72.5" stroke="#071D2B" stroke-width="1.5" stroke-miterlimit="10" stroke-linecap="round" stroke-linejoin="round"/>
<path d="M74.5039 67.5V72.5" stroke="#071D2B" stroke-width="1.5" stroke-miterlimit="10" stroke-linecap="round" stroke-linejoin="round"/>
<path d="M124.5 57.75C124.086 57.75 123.75 58.0858 123.75 58.5C123.75 58.9142 124.086 59.25 124.5 59.25V57.75ZM146.5 59.25C146.914 59.25 147.25 58.9142 147.25 58.5C147.25 58.0858 146.914 57.75 146.5 57.75V59.25ZM121.5 63.75C121.086 63.75 120.75 64.0858 120.75 64.5C120.75 64.9142 121.086 65.25 121.5 65.25V63.75ZM128.5 65.25C128.914 65.25 129.25 64.9142 129.25 64.5C129.25 64.0858 128.914 63.75 128.5 63.75V65.25ZM119.5 51.75C119.086 51.75 118.75 52.0858 118.75 52.5C118.75 52.9142 119.086 53.25 119.5 53.25V51.75ZM135.5 53.25C135.914 53.25 136.25 52.9142 136.25 52.5C136.25 52.0858 135.914 51.75 135.5 51.75V53.25ZM124.5 59.25H146.5V57.75H124.5V59.25ZM121.5 65.25H128.5V63.75H121.5V65.25ZM119.5 53.25H135.5V51.75H119.5V53.25Z" fill="#071D2B"/>
<path d="M256.891 42.9401C252.021 42.9501 251.771 39.1401 252.111 38.3101C255.181 30.9701 261.581 34.6901 263.331 32.7501C264.231 31.7401 264.511 31.6001 265.571 30.8001C269.651 27.7101 272.501 34.1001 275.631 30.6201C277.151 28.9201 282.311 28.8601 283.581 32.9801C284.711 36.7001 287.651 34.7401 289.921 36.4601C291.771 37.8601 294.041 39.6701 292.201 41.8901C290.721 43.6701 286.701 43.0001 283.801 42.9201C272.731 42.5901 267.931 42.9301 256.891 42.9401Z" stroke="#071D2B" stroke-width="1.5" stroke-miterlimit="10" stroke-linecap="round" stroke-linejoin="round"/>
<path d="M355.498 108.5C351.808 108.5 351.959 106.109 352.498 104.5C353.756 100.75 359.449 102.13 360.919 100.75C361.466 100.211 362.054 99.7161 362.679 99.2701C365.909 96.9701 367.749 101.86 370.249 99.1801C371.449 97.8901 375.319 97.8901 376.059 101.03C376.709 103.8 380.313 102.638 380.998 104.5C381.952 107.092 378.392 108.5 375.498 108.5C375.498 108.5 362.346 108.5 355.498 108.5Z" stroke="#071D2B" stroke-width="1.5" stroke-linecap="round" stroke-linejoin="round"/>
<path d="M342.5 52.5V56.4062M342.5 60.5V64.5M348.5 58.5H344.594M340.406 58.5H336.5" stroke="#071D2B" stroke-width="1.5" stroke-miterlimit="10" stroke-linecap="round" stroke-linejoin="round"/>
<path d="M37.5 124.5C39.1569 124.5 40.5 123.157 40.5 121.5C40.5 119.843 39.1569 118.5 37.5 118.5C35.8431 118.5 34.5 119.843 34.5 121.5C34.5 123.157 35.8431 124.5 37.5 124.5Z" stroke="#071D2B" stroke-width="1.5" stroke-miterlimit="10" stroke-linecap="round" stroke-linejoin="round"/>
</svg>
