<svg width="416" height="312" viewBox="0 0 416 312" fill="none" xmlns="http://www.w3.org/2000/svg">
<path opacity="0.5" d="M298.624 61.5417C298.617 57.0461 280.665 56.0282 280.665 56.0282C280.665 56.0282 266.113 56.6988 266.12 61.1944C266.127 65.69 263.775 67.1634 280.684 68.3709C292.546 69.218 298.631 66.0373 298.624 61.5417Z" fill="#0070F6"/>
<path opacity="0.5" d="M336.643 109.476C336.554 113.807 343.473 115.313 348.771 115.065C353.191 114.858 358.706 114.644 358.795 110.313C358.883 105.981 353.875 103.735 349.014 103.174C339.883 102.12 336.731 105.145 336.643 109.476Z" fill="#0070F6"/>
<path d="M249.347 254.978C251.01 260.124 247 272 233.993 274.97C223.061 278.321 215.552 265.01 225.195 259.731C229.441 257.406 234.773 258.062 237.642 253.402C240.511 248.742 247.684 249.833 249.347 254.978Z" fill="#FF9780"/>
<path d="M341.736 235.797C340.005 243.326 345.523 241.42 353.304 247.154C361.085 252.888 362.846 262.145 369.159 258.435C376.654 254.03 371.874 240.655 364.093 234.921C356.312 229.187 344.226 224.967 341.736 235.797Z" fill="#BBED58"/>
<path opacity="0.5" d="M146.53 80.6079C146.351 84.0958 136.28 83.1479 136.28 83.1479C136.28 83.1479 129.902 82.2674 130.08 78.7795C130.259 75.2916 131.453 76.5495 136.753 74.8163C143.255 72.6903 146.709 77.12 146.53 80.6079Z" fill="#0070F6"/>
<path d="M50.0076 177.942C51.2313 179.516 53.2556 181.55 56.1853 179.273C59.115 176.997 58.0393 174.046 56.8156 172.472C55.5919 170.897 54.255 170.497 51.3254 172.774C48.3957 175.05 48.7839 176.367 50.0076 177.942Z" fill="#FFDDBF"/>
<path d="M105.643 120.636L104.844 125.328C104.386 128.017 106.289 130.537 109.001 130.833L201.952 140.974C204.87 141.292 207.499 139.201 207.846 136.287C208.188 133.41 206.179 130.784 203.313 130.361L111.005 116.745C108.457 116.369 106.076 118.097 105.643 120.636Z" fill="#071D2B" fill-opacity="0.15"/>
<path d="M263.5 63.5C263.5 63.5 254.472 63.2103 257.721 56.5038C261.179 49.3682 269.2 53.6506 271.551 51.3154C272.796 50.018 272.934 48.7206 275.7 47.4233C280.555 45.1462 285.243 53.0017 289.53 48.7204C291.604 46.6446 297.828 46.2546 299.211 51.3144C300.455 55.9849 304.259 53.5904 307.509 55.2064C309.125 56.0104 311.381 58.3201 308.891 61.0446C306.402 63.7691 299.5 63.5 299.5 63.5L263.5 63.5Z" stroke="#071D2B" stroke-width="1.5" stroke-miterlimit="10" stroke-linecap="round" stroke-linejoin="round"/>
<path d="M127.498 78.5001C123.808 78.5001 123.959 76.1087 124.498 74.5001C125.756 70.7501 130.03 72.88 131.5 71.5C132.047 70.9609 133.284 69.8641 134.679 69.2701C137.491 68.0734 140 72.18 142.5 69.5C143.7 68.21 147.319 67.8901 148.059 71.0301C148.709 73.8001 152.313 72.6383 152.998 74.5001C153.952 77.0916 150.392 78.5001 147.498 78.5001C147.498 78.5001 134.346 78.5001 127.498 78.5001Z" stroke="#071D2B" stroke-width="1.5" stroke-linecap="round" stroke-linejoin="round"/>
<path d="M227.5 83.5V87.4062M227.5 91.5V95.5M233.5 89.5H229.594M225.406 89.5H221.5" stroke="#071D2B" stroke-width="1.5" stroke-miterlimit="10" stroke-linecap="round" stroke-linejoin="round"/>
<path d="M54.5 174.5C56.1569 174.5 57.5 173.157 57.5 171.5C57.5 169.843 56.1569 168.5 54.5 168.5C52.8431 168.5 51.5 169.843 51.5 171.5C51.5 173.157 52.8431 174.5 54.5 174.5Z" stroke="#071D2B" stroke-width="1.5" stroke-miterlimit="10" stroke-linecap="round" stroke-linejoin="round"/>
<path d="M331.591 109.5C326.721 109.51 326.771 105.14 327.111 104.31C330.181 96.9701 336.581 100.69 338.331 98.7501C339.231 97.7401 339.511 97.6001 340.571 96.8001C344.651 93.7101 347.501 100.1 350.631 96.6201C352.151 94.9201 357.311 94.8601 358.581 98.9801C359.711 102.7 362.651 100.74 364.921 102.46C366.771 103.86 369.041 105.67 367.201 107.89C365.721 109.67 361.401 109.58 358.501 109.5C349.001 109.5 342.631 109.49 331.591 109.5Z" stroke="#071D2B" stroke-width="1.5" stroke-miterlimit="10" stroke-linecap="round" stroke-linejoin="round"/>
<path d="M139.562 247.905L92.9167 241.969C90.4321 241.652 88.6512 239.415 88.9004 236.923V236.923C89.1627 234.3 91.5616 232.427 94.1698 232.809L108.432 234.896" stroke="#071D2B" stroke-width="1.5" stroke-miterlimit="10" stroke-linecap="round" stroke-linejoin="round"/>
<path d="M224.107 258.211V258.22C224.079 258.49 224.07 258.759 224.07 259.038C224.07 263.508 227.694 267.132 232.164 267.132C236.28 267.132 239.672 264.065 240.192 260.097" stroke="#071D2B" stroke-width="1.5" stroke-miterlimit="10" stroke-linecap="round" stroke-linejoin="round"/>
<path d="M178.59 252.552L189.741 168.919L150.712 164.272L139.561 247.906" stroke="#071D2B" stroke-width="1.5" stroke-miterlimit="10" stroke-linecap="round" stroke-linejoin="round"/>
<path d="M139.561 247.906L167.746 256.111L178.842 172.031L150.712 164.272" stroke="#071D2B" stroke-width="1.5" stroke-miterlimit="10" stroke-linecap="round" stroke-linejoin="round"/>
<path d="M164.652 219.099C166.192 219.099 167.44 217.85 167.44 216.311C167.44 214.771 166.192 213.523 164.652 213.523C163.112 213.523 161.864 214.771 161.864 216.311C161.864 217.85 163.112 219.099 164.652 219.099Z" stroke="#071D2B" stroke-width="1.5" stroke-miterlimit="10" stroke-linecap="round" stroke-linejoin="round"/>
<path d="M252.934 225.603L206.471 220.028L212.976 171.706L259.439 177.282L252.934 225.603Z" stroke="#071D2B" stroke-width="1.5" stroke-miterlimit="10" stroke-linecap="round" stroke-linejoin="round"/>
<path d="M255.72 201.443L209.722 195.923" stroke="#071D2B" stroke-width="1.5" stroke-miterlimit="10" stroke-linecap="round" stroke-linejoin="round"/>
<path d="M229.704 222.816L236.209 174.494" stroke="#071D2B" stroke-width="1.5" stroke-miterlimit="10" stroke-linecap="round" stroke-linejoin="round"/>
<path d="M210.187 195.403L210.185 194.653C209.92 194.653 209.674 194.794 209.54 195.023C209.405 195.252 209.402 195.535 209.531 195.768L210.187 195.403ZM233.49 174.483C233.594 174.082 233.353 173.673 232.952 173.569C232.551 173.465 232.142 173.706 232.038 174.107L233.49 174.483ZM221.523 221.794C221.471 222.205 221.763 222.579 222.174 222.631C222.585 222.682 222.96 222.391 223.011 221.98L221.523 221.794ZM214.083 214.448C214.08 214.862 214.414 215.2 214.828 215.202C215.242 215.205 215.58 214.871 215.583 214.457L214.083 214.448ZM210.188 196.153C216.007 196.144 221.18 193.256 225.204 189.143C229.226 185.03 232.154 179.64 233.49 174.483L232.038 174.107C230.765 179.018 227.965 184.174 224.131 188.094C220.298 192.013 215.487 194.644 210.185 194.653L210.188 196.153ZM209.98 196.124C214.154 197.316 217.291 201.771 219.275 207.091C221.245 212.373 221.969 218.223 221.523 221.794L223.011 221.98C223.494 218.116 222.714 212.02 220.68 206.567C218.66 201.151 215.293 196.082 210.393 194.682L209.98 196.124ZM209.531 195.768C212.628 201.327 214.125 207.785 214.083 214.448L215.583 214.457C215.627 207.568 214.079 200.849 210.842 195.038L209.531 195.768Z" fill="#071D2B"/>
<path d="M255.964 201.13L256.157 200.405C256.413 200.474 256.615 200.673 256.686 200.928C256.758 201.184 256.689 201.459 256.504 201.65L255.964 201.13ZM238.772 174.955C238.774 174.541 239.111 174.207 239.525 174.209C239.939 174.211 240.274 174.548 240.272 174.962L238.772 174.955ZM238.268 223.754C238.212 224.164 237.835 224.452 237.424 224.397C237.014 224.342 236.726 223.964 236.781 223.554L238.268 223.754ZM247.336 218.55C247.233 218.951 246.824 219.193 246.423 219.09C246.022 218.986 245.78 218.578 245.883 218.176L247.336 218.55ZM255.772 201.855C250.147 200.361 245.882 196.249 243.042 191.245C240.203 186.241 238.747 180.283 238.772 174.955L240.272 174.962C240.249 180.036 241.64 185.736 244.347 190.504C247.053 195.272 251.032 199.044 256.157 200.405L255.772 201.855ZM255.979 201.88C251.64 201.968 247.47 205.475 244.193 210.112C240.94 214.716 238.747 220.187 238.268 223.754L236.781 223.554C237.3 219.695 239.61 214 242.968 209.246C246.304 204.526 250.854 200.483 255.949 200.38L255.979 201.88ZM256.504 201.65C252.091 206.236 248.995 212.098 247.336 218.55L245.883 218.176C247.599 211.504 250.811 205.403 255.424 200.61L256.504 201.65Z" fill="#071D2B"/>
<path d="M55.5 279.5H54.75C54.75 279.914 55.0858 280.25 55.5 280.25V279.5ZM55.5 267.5V266.75C55.0858 266.75 54.75 267.086 54.75 267.5H55.5ZM121.5 279.5V280.25C121.914 280.25 122.25 279.914 122.25 279.5H121.5ZM121.5 267.5H122.25C122.25 267.086 121.914 266.75 121.5 266.75V267.5ZM66.5 267.5H65.75C65.75 267.914 66.0858 268.25 66.5 268.25V267.5ZM66.5 255.5V254.75C66.0858 254.75 65.75 255.086 65.75 255.5H66.5ZM110.5 267.5V268.25C110.914 268.25 111.25 267.914 111.25 267.5H110.5ZM110.5 255.5H111.25C111.25 255.086 110.914 254.75 110.5 254.75V255.5ZM99.5 255.5V256.25C99.9142 256.25 100.25 255.914 100.25 255.5H99.5ZM99.5 243.5H100.25C100.25 243.086 99.9142 242.75 99.5 242.75V243.5ZM77.5 255.5H76.75C76.75 255.914 77.0858 256.25 77.5 256.25V255.5ZM77.5 243.5V242.75C77.0858 242.75 76.75 243.086 76.75 243.5H77.5ZM78.25 279.5V267.5H76.75V279.5H78.25ZM77.5 278.75H55.5V280.25H77.5V278.75ZM55.5 268.25H77.5V266.75H55.5V268.25ZM56.25 279.5V267.5H54.75V279.5H56.25ZM100.25 279.5V267.5H98.75V279.5H100.25ZM99.5 278.75H77.5V280.25H99.5V278.75ZM77.5 268.25H99.5V266.75H77.5V268.25ZM122.25 279.5V267.5H120.75V279.5H122.25ZM121.5 278.75H99.5V280.25H121.5V278.75ZM99.5 268.25H121.5V266.75H99.5V268.25ZM67.25 267.5V255.5H65.75V267.5H67.25ZM89.25 267.5V255.5H87.75V267.5H89.25ZM88.5 266.75H66.5V268.25H88.5V266.75ZM66.5 256.25H88.5V254.75H66.5V256.25ZM110.5 266.75H88.5V268.25H110.5V266.75ZM88.5 256.25H110.5V254.75H88.5V256.25ZM111.25 267.5V261.5H109.75V267.5H111.25ZM111.25 261.5V255.5H109.75V261.5H111.25ZM100.25 255.5V243.5H98.75V255.5H100.25ZM99.5 254.75H77.5V256.25H99.5V254.75ZM77.5 244.25H99.5V242.75H77.5V244.25ZM78.25 255.5V243.5H76.75V255.5H78.25Z" fill="#071D2B"/>
<path d="M94.0272 239.077C94.797 239.077 95.4211 238.453 95.4211 237.683C95.4211 236.914 94.797 236.29 94.0272 236.29C93.2574 236.29 92.6333 236.914 92.6333 237.683C92.6333 238.453 93.2574 239.077 94.0272 239.077Z" stroke="#071D2B" stroke-width="1.5" stroke-miterlimit="10" stroke-linecap="round" stroke-linejoin="round"/>
<path d="M212.295 256.724L212.205 257.469L212.207 257.469L212.295 256.724ZM246.928 260.776L246.841 261.52L246.841 261.521L246.928 260.776ZM250.682 266.927L249.981 266.662L249.981 266.663L250.682 266.927ZM245.627 274.603L246.136 275.153L246.137 275.153L245.627 274.603ZM212.257 260.274L211.508 260.303C211.508 260.312 211.509 260.32 211.51 260.329L212.257 260.274ZM212.192 258.61H211.442C211.442 258.62 211.443 258.63 211.443 258.64L212.192 258.61ZM212.285 256.724L213.031 256.802C213.032 256.796 213.032 256.791 213.033 256.785L212.285 256.724ZM235.87 237.488L235.788 238.234L235.789 238.234L235.87 237.488ZM254.548 256.018L253.803 256.105L253.803 256.106L254.548 256.018ZM254.697 258.332L253.947 258.341L253.947 258.343L254.697 258.332ZM257.986 262.067L257.899 262.812L257.899 262.812L257.986 262.067ZM296.3 266.556L296.212 267.3C296.221 267.301 296.23 267.302 296.238 267.303L296.3 266.556ZM307.423 257.82L308.164 257.938L308.164 257.938L307.423 257.82ZM322.189 164.356L321.448 164.238L321.448 164.239L322.189 164.356ZM312.831 151.681L312.938 150.938L312.938 150.938L312.831 151.681ZM299.719 149.794L299.826 149.052C299.434 148.995 299.066 149.253 298.985 149.641L299.719 149.794ZM297.433 160.75L298.167 160.905L298.168 160.903L297.433 160.75ZM293.614 163.417L293.723 162.675L293.719 162.674L293.614 163.417ZM86.6031 134.09L86.7083 133.347L86.7015 133.346L86.6031 134.09ZM85.6366 132.77L84.897 132.646L84.8963 132.65L85.6366 132.77ZM87.7182 120.392L88.4578 120.517L88.458 120.516L87.7182 120.392ZM89.0099 119.445L89.1167 118.702L89.1112 118.701L89.0099 119.445ZM299.729 149.785L299.622 150.527C300.013 150.584 300.381 150.326 300.463 149.939L299.729 149.785ZM301.355 142.026L300.621 141.87L300.621 141.872L301.355 142.026ZM298.474 137.955L298.371 138.698L298.376 138.699L298.474 137.955ZM82.8303 108.061L82.9333 107.318L82.9329 107.318L82.8303 108.061ZM78.1375 111.453L77.4002 111.315L77.3994 111.32L78.1375 111.453ZM73.1939 138.857L73.9313 138.994L73.932 138.99L73.1939 138.857ZM76.7436 143.791L76.8474 143.048L76.8456 143.048L76.7436 143.791ZM113.05 148.865L113.157 148.123L113.154 148.122L113.05 148.865ZM116.116 152.861L115.372 152.768L115.372 152.77L116.116 152.861ZM107.586 223.02L106.841 222.929C106.838 222.952 106.837 222.974 106.836 222.997L107.586 223.02ZM111.702 244.932L112.395 244.644L112.395 244.643L111.702 244.932ZM168.454 250.877C168.043 250.83 167.671 251.125 167.623 251.536C167.575 251.947 167.87 252.32 168.282 252.367L168.454 250.877ZM331.918 254.696L332.158 255.406L331.918 254.696ZM334.204 228.736C334.058 228.349 333.625 228.152 333.238 228.298C332.85 228.444 332.654 228.876 332.799 229.264L334.204 228.736ZM327.308 247.928L326.662 247.547L327.308 247.928ZM329.15 254.646L329.384 253.933L329.15 254.646ZM212.207 257.469C218.869 258.249 237.559 260.433 246.841 261.52L247.015 260.031C237.731 258.943 219.046 256.76 212.382 255.979L212.207 257.469ZM246.841 261.521C249.314 261.808 250.858 264.342 249.981 266.662L251.384 267.192C252.607 263.956 250.453 260.431 247.015 260.031L246.841 261.521ZM249.981 266.663C248.945 269.41 247.507 271.842 245.118 274.052L246.137 275.153C248.728 272.755 250.283 270.113 251.384 267.192L249.981 266.663ZM245.118 274.052C241.679 277.234 237.25 278.75 232.487 278.75V280.25C237.574 280.25 242.383 278.625 246.136 275.153L245.118 274.052ZM232.487 278.75C222.29 278.75 213.786 270.796 213.005 260.219L211.51 260.329C212.346 271.664 221.478 280.25 232.487 280.25V278.75ZM213.007 260.244L212.942 258.581L211.443 258.64L211.508 260.303L213.007 260.244ZM212.942 258.61C212.942 258 212.969 257.395 213.031 256.802L211.539 256.646C211.471 257.298 211.442 257.957 211.442 258.61H212.942ZM213.033 256.785L213.033 256.784L211.538 256.661L211.538 256.663L213.033 256.785ZM213.033 256.788C214.01 245.566 224.05 236.942 235.788 238.234L235.952 236.743C223.363 235.358 212.588 244.612 211.538 256.658L213.033 256.788ZM235.789 238.234C245.143 239.255 252.71 246.76 253.803 256.105L255.293 255.931C254.119 245.891 246 237.84 235.951 236.743L235.789 238.234ZM253.803 256.106C253.893 256.858 253.938 257.603 253.947 258.341L255.447 258.322C255.437 257.536 255.389 256.738 255.293 255.929L253.803 256.106ZM253.947 258.343C253.98 260.59 255.606 262.542 257.899 262.812L258.074 261.322C256.576 261.146 255.469 259.865 255.447 258.321L253.947 258.343ZM257.899 262.812L296.212 267.3L296.387 265.811L258.074 261.322L257.899 262.812ZM296.238 267.303C302.057 267.781 307.247 263.696 308.164 257.938L306.682 257.703C305.889 262.687 301.396 266.222 296.361 265.808L296.238 267.303ZM308.164 257.938L322.93 164.473L321.448 164.239L306.682 257.703L308.164 257.938ZM322.93 164.473C323.962 157.972 319.466 151.881 312.938 150.938L312.724 152.423C318.426 153.246 322.349 158.566 321.448 164.238L322.93 164.473ZM312.938 150.938L299.826 149.052L299.613 150.536L312.724 152.423L312.938 150.938ZM298.985 149.641L296.699 160.597L298.168 160.903L300.454 149.947L298.985 149.641ZM296.7 160.595C296.409 161.966 295.104 162.877 293.723 162.675L293.505 164.159C295.674 164.477 297.714 163.047 298.167 160.905L296.7 160.595ZM293.719 162.674L86.7083 133.347L86.4979 134.832L293.509 164.16L293.719 162.674ZM86.7015 133.346C86.5016 133.32 86.3402 133.118 86.377 132.89L84.8963 132.65C84.7287 133.686 85.4407 134.692 86.5047 134.833L86.7015 133.346ZM86.3763 132.894L88.4578 120.517L86.9786 120.268L84.897 132.646L86.3763 132.894ZM88.458 120.516C88.4927 120.307 88.6921 120.158 88.9085 120.188L89.1112 118.701C88.101 118.564 87.1481 119.251 86.9784 120.269L88.458 120.516ZM88.903 120.187L299.622 150.527L299.835 149.043L89.1167 118.702L88.903 120.187ZM300.463 149.939L302.089 142.179L300.621 141.872L298.995 149.631L300.463 149.939ZM302.089 142.181C302.588 139.821 300.976 137.529 298.572 137.212L298.376 138.699C299.912 138.902 300.94 140.364 300.621 141.87L302.089 142.181ZM298.577 137.212L82.9333 107.318L82.7273 108.804L298.371 138.698L298.577 137.212ZM82.9329 107.318C80.3117 106.956 77.8818 108.732 77.4002 111.315L78.8748 111.59C79.211 109.787 80.9071 108.553 82.7277 108.804L82.9329 107.318ZM77.3994 111.32L72.4558 138.724L73.932 138.99L78.8756 111.586L77.3994 111.32ZM72.4565 138.72C71.9422 141.488 73.8444 144.15 76.6417 144.534L76.8456 143.048C74.9036 142.782 73.5721 140.927 73.9313 138.994L72.4565 138.72ZM76.6398 144.534L112.946 149.608L113.154 148.122L76.8474 143.048L76.6398 144.534ZM112.943 149.607C114.477 149.828 115.563 151.237 115.372 152.768L116.861 152.953C117.153 150.6 115.488 148.459 113.157 148.123L112.943 149.607ZM115.372 152.77L106.841 222.929L108.33 223.11L116.861 152.951L115.372 152.77ZM106.836 222.997C106.6 230.758 108.119 238.289 111.01 245.22L112.395 244.643C109.58 237.896 108.107 230.577 108.335 223.043L106.836 222.997ZM111.01 245.22C119.585 265.834 139.706 280.25 162.774 280.25V278.75C140.345 278.75 120.751 264.731 112.395 244.644L111.01 245.22ZM162.774 280.25H232.487V278.75H162.774V280.25ZM232.487 279.5C232.487 280.25 232.487 280.25 232.488 280.25C232.488 280.25 232.489 280.25 232.491 280.25C232.492 280.25 232.493 280.25 232.495 280.25C232.497 280.25 232.499 280.25 232.502 280.25C232.504 280.25 232.507 280.25 232.51 280.25C232.513 280.25 232.516 280.25 232.52 280.25C232.524 280.25 232.528 280.25 232.532 280.25C232.536 280.25 232.541 280.25 232.546 280.25C232.55 280.25 232.556 280.25 232.561 280.25C232.567 280.25 232.572 280.25 232.578 280.25C232.584 280.25 232.591 280.25 232.597 280.25C232.604 280.25 232.611 280.25 232.618 280.25C232.626 280.25 232.633 280.25 232.641 280.25C232.649 280.25 232.657 280.25 232.665 280.25C232.674 280.25 232.683 280.25 232.692 280.25C232.701 280.25 232.71 280.25 232.719 280.25C232.729 280.25 232.739 280.25 232.749 280.25C232.759 280.25 232.77 280.25 232.781 280.25C232.791 280.25 232.802 280.25 232.814 280.25C232.825 280.25 232.837 280.25 232.849 280.25C232.861 280.25 232.873 280.25 232.885 280.25C232.898 280.25 232.911 280.25 232.924 280.25C232.937 280.25 232.95 280.25 232.964 280.25C232.977 280.25 232.991 280.25 233.006 280.25C233.02 280.25 233.034 280.25 233.049 280.25C233.064 280.25 233.079 280.25 233.094 280.25C233.11 280.25 233.125 280.25 233.141 280.25C233.157 280.25 233.173 280.25 233.19 280.25C233.206 280.25 233.223 280.25 233.24 280.25C233.257 280.25 233.274 280.25 233.292 280.25C233.309 280.25 233.327 280.25 233.345 280.25C233.363 280.25 233.382 280.25 233.401 280.25C233.419 280.25 233.438 280.25 233.457 280.25C233.477 280.25 233.496 280.25 233.516 280.25C233.536 280.25 233.556 280.25 233.576 280.25C233.596 280.25 233.617 280.25 233.638 280.25C233.659 280.25 233.68 280.25 233.701 280.25C233.723 280.25 233.744 280.25 233.766 280.25C233.788 280.25 233.811 280.25 233.833 280.25C233.856 280.25 233.878 280.25 233.901 280.25C233.924 280.25 233.948 280.25 233.971 280.25C233.995 280.25 234.019 280.25 234.043 280.25C234.067 280.25 234.091 280.25 234.116 280.25C234.14 280.25 234.165 280.25 234.19 280.25C234.216 280.25 234.241 280.25 234.267 280.25C234.292 280.25 234.318 280.25 234.344 280.25C234.371 280.25 234.397 280.25 234.424 280.25C234.451 280.25 234.478 280.25 234.505 280.25C234.532 280.25 234.56 280.25 234.587 280.25C234.615 280.25 234.643 280.25 234.671 280.25C234.7 280.25 234.728 280.25 234.757 280.25C234.786 280.25 234.815 280.25 234.844 280.25C234.873 280.25 234.903 280.25 234.933 280.25C234.962 280.25 234.993 280.25 235.023 280.25C235.053 280.25 235.084 280.25 235.115 280.25C235.145 280.25 235.176 280.25 235.208 280.25C235.239 280.25 235.271 280.25 235.302 280.25C235.334 280.25 235.366 280.25 235.399 280.25C235.431 280.25 235.464 280.25 235.496 280.25C235.529 280.25 235.562 280.25 235.596 280.25C235.629 280.25 235.662 280.25 235.696 280.25C235.73 280.25 235.764 280.25 235.798 280.25C235.833 280.25 235.867 280.25 235.902 280.25C235.937 280.25 235.972 280.25 236.007 280.25C236.042 280.25 236.078 280.25 236.113 280.25C236.149 280.25 236.185 280.25 236.221 280.25C236.258 280.25 236.294 280.25 236.331 280.25C236.368 280.25 236.405 280.25 236.442 280.25C236.479 280.25 236.516 280.25 236.554 280.25C236.592 280.25 236.63 280.25 236.668 280.25C236.706 280.25 236.744 280.25 236.783 280.25C236.821 280.25 236.86 280.25 236.899 280.25C236.938 280.25 236.978 280.25 237.017 280.25C237.057 280.25 237.097 280.25 237.137 280.25C237.177 280.25 237.217 280.25 237.257 280.25C237.298 280.25 237.339 280.25 237.379 280.25C237.42 280.25 237.462 280.25 237.503 280.25C237.544 280.25 237.586 280.25 237.628 280.25C237.67 280.25 237.712 280.25 237.754 280.25C237.796 280.25 237.839 280.25 237.882 280.25C237.924 280.25 237.967 280.25 238.011 280.25C238.054 280.25 238.097 280.25 238.141 280.25C238.185 280.25 238.229 280.25 238.273 280.25C238.317 280.25 238.361 280.25 238.406 280.25C238.45 280.25 238.495 280.25 238.54 280.25C238.585 280.25 238.63 280.25 238.676 280.25C238.721 280.25 238.767 280.25 238.813 280.25C238.859 280.25 238.905 280.25 238.951 280.25C238.997 280.25 239.044 280.25 239.091 280.25C239.137 280.25 239.184 280.25 239.231 280.25C239.279 280.25 239.326 280.25 239.374 280.25C239.421 280.25 239.469 280.25 239.517 280.25C239.565 280.25 239.613 280.25 239.662 280.25C239.71 280.25 239.759 280.25 239.808 280.25C239.857 280.25 239.906 280.25 239.955 280.25C240.005 280.25 240.054 280.25 240.104 280.25C240.154 280.25 240.204 280.25 240.254 280.25C240.304 280.25 240.354 280.25 240.405 280.25C240.455 280.25 240.506 280.25 240.557 280.25C240.608 280.25 240.659 280.25 240.711 280.25C240.762 280.25 240.814 280.25 240.866 280.25C240.917 280.25 240.969 280.25 241.022 280.25C241.074 280.25 241.126 280.25 241.179 280.25C241.231 280.25 241.284 280.25 241.337 280.25C241.39 280.25 241.444 280.25 241.497 280.25C241.55 280.25 241.604 280.25 241.658 280.25C241.712 280.25 241.766 280.25 241.82 280.25C241.874 280.25 241.929 280.25 241.983 280.25C242.038 280.25 242.093 280.25 242.148 280.25C242.203 280.25 242.258 280.25 242.313 280.25C242.369 280.25 242.424 280.25 242.48 280.25C242.536 280.25 242.592 280.25 242.648 280.25C242.704 280.25 242.761 280.25 242.817 280.25C242.874 280.25 242.931 280.25 242.988 280.25C243.045 280.25 243.102 280.25 243.159 280.25C243.216 280.25 243.274 280.25 243.332 280.25C243.389 280.25 243.447 280.25 243.505 280.25C243.563 280.25 243.622 280.25 243.68 280.25C243.739 280.25 243.797 280.25 243.856 280.25C243.915 280.25 243.974 280.25 244.033 280.25C244.092 280.25 244.152 280.25 244.211 280.25C244.271 280.25 244.331 280.25 244.391 280.25C244.451 280.25 244.511 280.25 244.571 280.25C244.631 280.25 244.692 280.25 244.753 280.25C244.813 280.25 244.874 280.25 244.935 280.25C244.996 280.25 245.057 280.25 245.119 280.25C245.18 280.25 245.242 280.25 245.303 280.25C245.365 280.25 245.427 280.25 245.489 280.25C245.551 280.25 245.614 280.25 245.676 280.25C245.739 280.25 245.801 280.25 245.864 280.25C245.927 280.25 245.99 280.25 246.053 280.25C246.116 280.25 246.179 280.25 246.243 280.25C246.306 280.25 246.37 280.25 246.434 280.25C246.498 280.25 246.562 280.25 246.626 280.25C246.69 280.25 246.755 280.25 246.819 280.25C246.884 280.25 246.948 280.25 247.013 280.25C247.078 280.25 247.143 280.25 247.208 280.25C247.273 280.25 247.339 280.25 247.404 280.25C247.47 280.25 247.536 280.25 247.602 280.25C247.667 280.25 247.733 280.25 247.8 280.25C247.866 280.25 247.932 280.25 247.999 280.25C248.065 280.25 248.132 280.25 248.199 280.25C248.266 280.25 248.333 280.25 248.4 280.25C248.467 280.25 248.534 280.25 248.602 280.25C248.669 280.25 248.737 280.25 248.805 280.25C248.873 280.25 248.941 280.25 249.009 280.25C249.077 280.25 249.145 280.25 249.214 280.25C249.282 280.25 249.351 280.25 249.419 280.25C249.488 280.25 249.557 280.25 249.626 280.25C249.695 280.25 249.765 280.25 249.834 280.25C249.903 280.25 249.973 280.25 250.043 280.25C250.112 280.25 250.182 280.25 250.252 280.25C250.322 280.25 250.392 280.25 250.463 280.25C250.533 280.25 250.603 280.25 250.674 280.25C250.745 280.25 250.815 280.25 250.886 280.25C250.957 280.25 251.028 280.25 251.099 280.25C251.171 280.25 251.242 280.25 251.313 280.25C251.385 280.25 251.457 280.25 251.528 280.25C251.6 280.25 251.672 280.25 251.744 280.25C251.816 280.25 251.888 280.25 251.961 280.25C252.033 280.25 252.106 280.25 252.178 280.25C252.251 280.25 252.324 280.25 252.397 280.25C252.47 280.25 252.543 280.25 252.616 280.25C252.689 280.25 252.763 280.25 252.836 280.25C252.91 280.25 252.983 280.25 253.057 280.25C253.131 280.25 253.205 280.25 253.279 280.25C253.353 280.25 253.427 280.25 253.501 280.25C253.576 280.25 253.65 280.25 253.725 280.25C253.799 280.25 253.874 280.25 253.949 280.25C254.024 280.25 254.099 280.25 254.174 280.25C254.249 280.25 254.324 280.25 254.4 280.25C254.475 280.25 254.551 280.25 254.626 280.25C254.702 280.25 254.778 280.25 254.854 280.25C254.93 280.25 255.006 280.25 255.082 280.25C255.158 280.25 255.235 280.25 255.311 280.25C255.387 280.25 255.464 280.25 255.541 280.25C255.617 280.25 255.694 280.25 255.771 280.25C255.848 280.25 255.925 280.25 256.003 280.25C256.08 280.25 256.157 280.25 256.235 280.25C256.312 280.25 256.39 280.25 256.467 280.25C256.545 280.25 256.623 280.25 256.701 280.25C256.779 280.25 256.857 280.25 256.935 280.25C257.013 280.25 257.092 280.25 257.17 280.25C257.248 280.25 257.327 280.25 257.406 280.25C257.484 280.25 257.563 280.25 257.642 280.25C257.721 280.25 257.8 280.25 257.879 280.25C257.958 280.25 258.038 280.25 258.117 280.25C258.196 280.25 258.276 280.25 258.356 280.25C258.435 280.25 258.515 280.25 258.595 280.25C258.675 280.25 258.755 280.25 258.835 280.25C258.915 280.25 258.995 280.25 259.075 280.25C259.156 280.25 259.236 280.25 259.316 280.25C259.397 280.25 259.478 280.25 259.558 280.25C259.639 280.25 259.72 280.25 259.801 280.25C259.882 280.25 259.963 280.25 260.044 280.25C260.125 280.25 260.207 280.25 260.288 280.25C260.369 280.25 260.451 280.25 260.533 280.25C260.614 280.25 260.696 280.25 260.778 280.25C260.859 280.25 260.941 280.25 261.023 280.25C261.105 280.25 261.188 280.25 261.27 280.25C261.352 280.25 261.434 280.25 261.517 280.25C261.599 280.25 261.682 280.25 261.764 280.25C261.847 280.25 261.93 280.25 262.013 280.25C262.096 280.25 262.178 280.25 262.262 280.25C262.345 280.25 262.428 280.25 262.511 280.25C262.594 280.25 262.678 280.25 262.761 280.25C262.844 280.25 262.928 280.25 263.012 280.25C263.095 280.25 263.179 280.25 263.263 280.25C263.347 280.25 263.43 280.25 263.514 280.25C263.598 280.25 263.683 280.25 263.767 280.25C263.851 280.25 263.935 280.25 264.02 280.25C264.104 280.25 264.188 280.25 264.273 280.25C264.357 280.25 264.442 280.25 264.527 280.25C264.612 280.25 264.696 280.25 264.781 280.25C264.866 280.25 264.951 280.25 265.036 280.25C265.121 280.25 265.207 280.25 265.292 280.25C265.377 280.25 265.462 280.25 265.548 280.25C265.633 280.25 265.719 280.25 265.804 280.25C265.89 280.25 265.976 280.25 266.061 280.25C266.147 280.25 266.233 280.25 266.319 280.25C266.405 280.25 266.491 280.25 266.577 280.25C266.663 280.25 266.749 280.25 266.836 280.25C266.922 280.25 267.008 280.25 267.095 280.25C267.181 280.25 267.268 280.25 267.354 280.25C267.441 280.25 267.527 280.25 267.614 280.25C267.701 280.25 267.788 280.25 267.875 280.25C267.961 280.25 268.048 280.25 268.135 280.25C268.222 280.25 268.31 280.25 268.397 280.25C268.484 280.25 268.571 280.25 268.658 280.25C268.746 280.25 268.833 280.25 268.921 280.25C269.008 280.25 269.096 280.25 269.183 280.25C269.271 280.25 269.359 280.25 269.446 280.25C269.534 280.25 269.622 280.25 269.71 280.25C269.798 280.25 269.886 280.25 269.974 280.25C270.062 280.25 270.15 280.25 270.238 280.25C270.326 280.25 270.415 280.25 270.503 280.25C270.591 280.25 270.679 280.25 270.768 280.25C270.856 280.25 270.945 280.25 271.033 280.25C271.122 280.25 271.211 280.25 271.299 280.25C271.388 280.25 271.477 280.25 271.566 280.25C271.654 280.25 271.743 280.25 271.832 280.25C271.921 280.25 272.01 280.25 272.099 280.25C272.188 280.25 272.277 280.25 272.366 280.25C272.456 280.25 272.545 280.25 272.634 280.25C272.723 280.25 272.813 280.25 272.902 280.25C272.992 280.25 273.081 280.25 273.171 280.25C273.26 280.25 273.35 280.25 273.439 280.25C273.529 280.25 273.619 280.25 273.708 280.25C273.798 280.25 273.888 280.25 273.978 280.25C274.068 280.25 274.157 280.25 274.247 280.25C274.337 280.25 274.427 280.25 274.517 280.25C274.607 280.25 274.697 280.25 274.788 280.25C274.878 280.25 274.968 280.25 275.058 280.25C275.148 280.25 275.239 280.25 275.329 280.25C275.419 280.25 275.51 280.25 275.6 280.25C275.691 280.25 275.781 280.25 275.872 280.25C275.962 280.25 276.053 280.25 276.143 280.25C276.234 280.25 276.325 280.25 276.415 280.25C276.506 280.25 276.597 280.25 276.688 280.25C276.778 280.25 276.869 280.25 276.96 280.25C277.051 280.25 277.142 280.25 277.233 280.25C277.324 280.25 277.415 280.25 277.506 280.25C277.597 280.25 277.688 280.25 277.779 280.25C277.87 280.25 277.961 280.25 278.052 280.25C278.143 280.25 278.235 280.25 278.326 280.25C278.417 280.25 278.508 280.25 278.6 280.25C278.691 280.25 278.782 280.25 278.874 280.25C278.965 280.25 279.057 280.25 279.148 280.25C279.24 280.25 279.331 280.25 279.423 280.25C279.514 280.25 279.606 280.25 279.697 280.25C279.789 280.25 279.88 280.25 279.972 280.25C280.064 280.25 280.155 280.25 280.247 280.25C280.339 280.25 280.431 280.25 280.522 280.25C280.614 280.25 280.706 280.25 280.798 280.25C280.89 280.25 280.981 280.25 281.073 280.25C281.165 280.25 281.257 280.25 281.349 280.25C281.441 280.25 281.533 280.25 281.625 280.25C281.717 280.25 281.809 280.25 281.901 280.25C281.993 280.25 282.085 280.25 282.177 280.25C282.269 280.25 282.361 280.25 282.453 280.25C282.545 280.25 282.637 280.25 282.729 280.25C282.822 280.25 282.914 280.25 283.006 280.25C283.098 280.25 283.19 280.25 283.282 280.25C283.375 280.25 283.467 280.25 283.559 280.25C283.651 280.25 283.744 280.25 283.836 280.25C283.928 280.25 284.02 280.25 284.113 280.25C284.205 280.25 284.297 280.25 284.39 280.25C284.482 280.25 284.574 280.25 284.667 280.25C284.759 280.25 284.852 280.25 284.944 280.25C285.036 280.25 285.129 280.25 285.221 280.25C285.314 280.25 285.406 280.25 285.498 280.25C285.591 280.25 285.683 280.25 285.776 280.25C285.868 280.25 285.961 280.25 286.053 280.25C286.145 280.25 286.238 280.25 286.33 280.25C286.423 280.25 286.515 280.25 286.608 280.25C286.7 280.25 286.793 280.25 286.885 280.25C286.978 280.25 287.07 280.25 287.163 280.25C287.255 280.25 287.348 280.25 287.44 280.25C287.533 280.25 287.625 280.25 287.718 280.25C287.81 280.25 287.903 280.25 287.995 280.25C288.088 280.25 288.18 280.25 288.273 280.25C288.365 280.25 288.458 280.25 288.55 280.25C288.643 280.25 288.735 280.25 288.828 280.25C288.92 280.25 289.013 280.25 289.105 280.25C289.198 280.25 289.29 280.25 289.383 280.25C289.475 280.25 289.568 280.25 289.66 280.25C289.753 280.25 289.845 280.25 289.938 280.25C290.03 280.25 290.123 280.25 290.215 280.25C290.307 280.25 290.4 280.25 290.492 280.25C290.585 280.25 290.677 280.25 290.77 280.25C290.862 280.25 290.954 280.25 291.047 280.25C291.139 280.25 291.231 280.25 291.324 280.25C291.416 280.25 291.509 280.25 291.601 280.25C291.693 280.25 291.786 280.25 291.878 280.25C291.97 280.25 292.062 280.25 292.155 280.25C292.247 280.25 292.339 280.25 292.431 280.25C292.524 280.25 292.616 280.25 292.708 280.25C292.8 280.25 292.893 280.25 292.985 280.25C293.077 280.25 293.169 280.25 293.261 280.25C293.353 280.25 293.445 280.25 293.538 280.25C293.63 280.25 293.722 280.25 293.814 280.25C293.906 280.25 293.998 280.25 294.09 280.25C294.182 280.25 294.274 280.25 294.366 280.25C294.458 280.25 294.55 280.25 294.642 280.25C294.734 280.25 294.825 280.25 294.917 280.25C295.009 280.25 295.101 280.25 295.193 280.25C295.285 280.25 295.376 280.25 295.468 280.25C295.56 280.25 295.652 280.25 295.743 280.25C295.835 280.25 295.927 280.25 296.018 280.25C296.11 280.25 296.202 280.25 296.293 280.25C296.385 280.25 296.476 280.25 296.568 280.25C296.659 280.25 296.751 280.25 296.842 280.25C296.934 280.25 297.025 280.25 297.117 280.25C297.208 280.25 297.299 280.25 297.391 280.25C297.482 280.25 297.573 280.25 297.664 280.25C297.756 280.25 297.847 280.25 297.938 280.25C298.029 280.25 298.12 280.25 298.211 280.25C298.303 280.25 298.394 280.25 298.485 280.25C298.576 280.25 298.667 280.25 298.758 280.25C298.849 280.25 298.939 280.25 299.03 280.25C299.121 280.25 299.212 280.25 299.303 280.25C299.393 280.25 299.484 280.25 299.575 280.25C299.666 280.25 299.756 280.25 299.847 280.25C299.937 280.25 300.028 280.25 300.119 280.25C300.209 280.25 300.3 280.25 300.39 280.25C300.48 280.25 300.571 280.25 300.661 280.25C300.751 280.25 300.842 280.25 300.932 280.25C301.022 280.25 301.112 280.25 301.202 280.25C301.293 280.25 301.383 280.25 301.473 280.25C301.563 280.25 301.653 280.25 301.743 280.25C301.833 280.25 301.923 280.25 302.012 280.25C302.102 280.25 302.192 280.25 302.282 280.25C302.371 280.25 302.461 280.25 302.551 280.25C302.64 280.25 302.73 280.25 302.819 280.25C302.909 280.25 302.998 280.25 303.088 280.25C303.177 280.25 303.266 280.25 303.356 280.25C303.445 280.25 303.534 280.25 303.623 280.25C303.713 280.25 303.802 280.25 303.891 280.25C303.98 280.25 304.069 280.25 304.158 280.25C304.247 280.25 304.335 280.25 304.424 280.25C304.513 280.25 304.602 280.25 304.69 280.25C304.779 280.25 304.868 280.25 304.956 280.25C305.045 280.25 305.133 280.25 305.222 280.25C305.31 280.25 305.399 280.25 305.487 280.25C305.575 280.25 305.663 280.25 305.751 280.25C305.84 280.25 305.928 280.25 306.016 280.25C306.104 280.25 306.192 280.25 306.28 280.25C306.368 280.25 306.455 280.25 306.543 280.25C306.631 280.25 306.719 280.25 306.806 280.25C306.894 280.25 306.981 280.25 307.069 280.25C307.156 280.25 307.244 280.25 307.331 280.25C307.418 280.25 307.505 280.25 307.593 280.25C307.68 280.25 307.767 280.25 307.854 280.25C307.941 280.25 308.028 280.25 308.115 280.25C308.202 280.25 308.288 280.25 308.375 280.25C308.462 280.25 308.549 280.25 308.635 280.25C308.722 280.25 308.808 280.25 308.895 280.25C308.981 280.25 309.067 280.25 309.154 280.25C309.24 280.25 309.326 280.25 309.412 280.25C309.498 280.25 309.584 280.25 309.67 280.25C309.756 280.25 309.842 280.25 309.928 280.25C310.013 280.25 310.099 280.25 310.185 280.25C310.27 280.25 310.356 280.25 310.441 280.25C310.526 280.25 310.612 280.25 310.697 280.25C310.782 280.25 310.867 280.25 310.953 280.25C311.038 280.25 311.123 280.25 311.207 280.25C311.292 280.25 311.377 280.25 311.462 280.25C311.547 280.25 311.631 280.25 311.716 280.25C311.8 280.25 311.885 280.25 311.969 280.25C312.053 280.25 312.138 280.25 312.222 280.25C312.306 280.25 312.39 280.25 312.474 280.25C312.558 280.25 312.642 280.25 312.726 280.25C312.81 280.25 312.893 280.25 312.977 280.25C313.061 280.25 313.144 280.25 313.227 280.25C313.311 280.25 313.394 280.25 313.477 280.25C313.561 280.25 313.644 280.25 313.727 280.25C313.81 280.25 313.893 280.25 313.976 280.25C314.058 280.25 314.141 280.25 314.224 280.25C314.306 280.25 314.389 280.25 314.471 280.25C314.554 280.25 314.636 280.25 314.718 280.25C314.801 280.25 314.883 280.25 314.965 280.25C315.047 280.25 315.129 280.25 315.21 280.25C315.292 280.25 315.374 280.25 315.455 280.25C315.537 280.25 315.619 280.25 315.7 280.25C315.781 280.25 315.863 280.25 315.944 280.25C316.025 280.25 316.106 280.25 316.187 280.25C316.268 280.25 316.349 280.25 316.429 280.25C316.51 280.25 316.591 280.25 316.671 280.25C316.752 280.25 316.832 280.25 316.912 280.25C316.993 280.25 317.073 280.25 317.153 280.25C317.233 280.25 317.313 280.25 317.393 280.25C317.473 280.25 317.552 280.25 317.632 280.25C317.712 280.25 317.791 280.25 317.87 280.25C317.95 280.25 318.029 280.25 318.108 280.25C318.187 280.25 318.266 280.25 318.345 280.25C318.424 280.25 318.503 280.25 318.582 280.25C318.66 280.25 318.739 280.25 318.817 280.25C318.896 280.25 318.974 280.25 319.052 280.25C319.13 280.25 319.208 280.25 319.286 280.25C319.364 280.25 319.442 280.25 319.52 280.25C319.597 280.25 319.675 280.25 319.752 280.25C319.83 280.25 319.907 280.25 319.984 280.25C320.062 280.25 320.139 280.25 320.216 280.25C320.293 280.25 320.369 280.25 320.446 280.25C320.523 280.25 320.599 280.25 320.676 280.25C320.752 280.25 320.828 280.25 320.905 280.25C320.981 280.25 321.057 280.25 321.133 280.25C321.209 280.25 321.284 280.25 321.36 280.25C321.436 280.25 321.511 280.25 321.587 280.25C321.662 280.25 321.737 280.25 321.812 280.25C321.888 280.25 321.963 280.25 322.037 280.25C322.112 280.25 322.187 280.25 322.262 280.25C322.336 280.25 322.411 280.25 322.485 280.25C322.559 280.25 322.633 280.25 322.707 280.25C322.781 280.25 322.855 280.25 322.929 280.25C323.003 280.25 323.077 280.25 323.15 280.25C323.223 280.25 323.297 280.25 323.37 280.25C323.443 280.25 323.516 280.25 323.589 280.25C323.662 280.25 323.735 280.25 323.808 280.25C323.88 280.25 323.953 280.25 324.025 280.25C324.097 280.25 324.17 280.25 324.242 280.25C324.314 280.25 324.386 280.25 324.457 280.25C324.529 280.25 324.601 280.25 324.672 280.25C324.744 280.25 324.815 280.25 324.886 280.25C324.957 280.25 325.028 280.25 325.099 280.25C325.17 280.25 325.241 280.25 325.311 280.25C325.382 280.25 325.452 280.25 325.523 280.25C325.593 280.25 325.663 280.25 325.733 280.25C325.803 280.25 325.873 280.25 325.943 280.25C326.012 280.25 326.082 280.25 326.151 280.25C326.22 280.25 326.29 280.25 326.359 280.25C326.428 280.25 326.497 280.25 326.565 280.25C326.634 280.25 326.703 280.25 326.771 280.25C326.84 280.25 326.908 280.25 326.976 280.25C327.044 280.25 327.112 280.25 327.18 280.25C327.248 280.25 327.315 280.25 327.383 280.25C327.45 280.25 327.518 280.25 327.585 280.25C327.652 280.25 327.719 280.25 327.786 280.25C327.852 280.25 327.919 280.25 327.986 280.25C328.052 280.25 328.118 280.25 328.185 280.25C328.251 280.25 328.317 280.25 328.383 280.25C328.449 280.25 328.514 280.25 328.58 280.25C328.645 280.25 328.711 280.25 328.776 280.25C328.841 280.25 328.906 280.25 328.971 280.25C329.036 280.25 329.1 280.25 329.165 280.25C329.229 280.25 329.294 280.25 329.358 280.25C329.422 280.25 329.486 280.25 329.55 280.25C329.614 280.25 329.677 280.25 329.741 280.25C329.804 280.25 329.867 280.25 329.931 280.25C329.994 280.25 330.057 280.25 330.119 280.25C330.182 280.25 330.245 280.25 330.307 280.25C330.37 280.25 330.432 280.25 330.494 280.25C330.556 280.25 330.618 280.25 330.68 280.25C330.741 280.25 330.803 280.25 330.864 280.25C330.926 280.25 330.987 280.25 331.048 280.25C331.109 280.25 331.17 280.25 331.23 280.25C331.291 280.25 331.352 280.25 331.412 280.25C331.472 280.25 331.532 280.25 331.592 280.25C331.652 280.25 331.712 280.25 331.771 280.25C331.831 280.25 331.89 280.25 331.949 280.25C332.009 280.25 332.068 280.25 332.126 280.25C332.185 280.25 332.244 280.25 332.302 280.25C332.361 280.25 332.419 280.25 332.477 280.25C332.535 280.25 332.593 280.25 332.651 280.25C332.708 280.25 332.766 280.25 332.823 280.25C332.88 280.25 332.938 280.25 332.994 280.25C333.051 280.25 333.108 280.25 333.165 280.25C333.221 280.25 333.278 280.25 333.334 280.25C333.39 280.25 333.446 280.25 333.502 280.25C333.557 280.25 333.613 280.25 333.668 280.25C333.724 280.25 333.779 280.25 333.834 280.25C333.889 280.25 333.944 280.25 333.998 280.25C334.053 280.25 334.107 280.25 334.161 280.25C334.216 280.25 334.27 280.25 334.323 280.25C334.377 280.25 334.431 280.25 334.484 280.25C334.538 280.25 334.591 280.25 334.644 280.25C334.697 280.25 334.75 280.25 334.802 280.25C334.855 280.25 334.907 280.25 334.959 280.25C335.011 280.25 335.063 280.25 335.115 280.25C335.167 280.25 335.219 280.25 335.27 280.25C335.321 280.25 335.372 280.25 335.423 280.25C335.474 280.25 335.525 280.25 335.576 280.25C335.626 280.25 335.677 280.25 335.727 280.25C335.777 280.25 335.827 280.25 335.876 280.25C335.926 280.25 335.976 280.25 336.025 280.25C336.074 280.25 336.123 280.25 336.172 280.25C336.221 280.25 336.27 280.25 336.318 280.25C336.366 280.25 336.415 280.25 336.463 280.25C336.511 280.25 336.559 280.25 336.606 280.25C336.654 280.25 336.701 280.25 336.748 280.25C336.795 280.25 336.842 280.25 336.889 280.25C336.936 280.25 336.982 280.25 337.028 280.25V278.75C336.982 278.75 336.936 278.75 336.889 278.75C336.842 278.75 336.795 278.75 336.748 278.75C336.701 278.75 336.654 278.75 336.606 278.75C336.559 278.75 336.511 278.75 336.463 278.75C336.415 278.75 336.366 278.75 336.318 278.75C336.27 278.75 336.221 278.75 336.172 278.75C336.123 278.75 336.074 278.75 336.025 278.75C335.976 278.75 335.926 278.75 335.876 278.75C335.827 278.75 335.777 278.75 335.727 278.75C335.677 278.75 335.626 278.75 335.576 278.75C335.525 278.75 335.474 278.75 335.423 278.75C335.372 278.75 335.321 278.75 335.27 278.75C335.219 278.75 335.167 278.75 335.115 278.75C335.063 278.75 335.011 278.75 334.959 278.75C334.907 278.75 334.855 278.75 334.802 278.75C334.75 278.75 334.697 278.75 334.644 278.75C334.591 278.75 334.538 278.75 334.484 278.75C334.431 278.75 334.377 278.75 334.323 278.75C334.27 278.75 334.216 278.75 334.161 278.75C334.107 278.75 334.053 278.75 333.998 278.75C333.944 278.75 333.889 278.75 333.834 278.75C333.779 278.75 333.724 278.75 333.668 278.75C333.613 278.75 333.557 278.75 333.502 278.75C333.446 278.75 333.39 278.75 333.334 278.75C333.278 278.75 333.221 278.75 333.165 278.75C333.108 278.75 333.051 278.75 332.994 278.75C332.938 278.75 332.88 278.75 332.823 278.75C332.766 278.75 332.708 278.75 332.651 278.75C332.593 278.75 332.535 278.75 332.477 278.75C332.419 278.75 332.361 278.75 332.302 278.75C332.244 278.75 332.185 278.75 332.126 278.75C332.068 278.75 332.009 278.75 331.949 278.75C331.89 278.75 331.831 278.75 331.771 278.75C331.712 278.75 331.652 278.75 331.592 278.75C331.532 278.75 331.472 278.75 331.412 278.75C331.352 278.75 331.291 278.75 331.23 278.75C331.17 278.75 331.109 278.75 331.048 278.75C330.987 278.75 330.926 278.75 330.864 278.75C330.803 278.75 330.741 278.75 330.68 278.75C330.618 278.75 330.556 278.75 330.494 278.75C330.432 278.75 330.37 278.75 330.307 278.75C330.245 278.75 330.182 278.75 330.119 278.75C330.057 278.75 329.994 278.75 329.931 278.75C329.867 278.75 329.804 278.75 329.741 278.75C329.677 278.75 329.614 278.75 329.55 278.75C329.486 278.75 329.422 278.75 329.358 278.75C329.294 278.75 329.229 278.75 329.165 278.75C329.1 278.75 329.036 278.75 328.971 278.75C328.906 278.75 328.841 278.75 328.776 278.75C328.711 278.75 328.645 278.75 328.58 278.75C328.514 278.75 328.449 278.75 328.383 278.75C328.317 278.75 328.251 278.75 328.185 278.75C328.118 278.75 328.052 278.75 327.986 278.75C327.919 278.75 327.852 278.75 327.786 278.75C327.719 278.75 327.652 278.75 327.585 278.75C327.518 278.75 327.45 278.75 327.383 278.75C327.315 278.75 327.248 278.75 327.18 278.75C327.112 278.75 327.044 278.75 326.976 278.75C326.908 278.75 326.84 278.75 326.771 278.75C326.703 278.75 326.634 278.75 326.565 278.75C326.497 278.75 326.428 278.75 326.359 278.75C326.29 278.75 326.22 278.75 326.151 278.75C326.082 278.75 326.012 278.75 325.943 278.75C325.873 278.75 325.803 278.75 325.733 278.75C325.663 278.75 325.593 278.75 325.523 278.75C325.452 278.75 325.382 278.75 325.311 278.75C325.241 278.75 325.17 278.75 325.099 278.75C325.028 278.75 324.957 278.75 324.886 278.75C324.815 278.75 324.744 278.75 324.672 278.75C324.601 278.75 324.529 278.75 324.457 278.75C324.386 278.75 324.314 278.75 324.242 278.75C324.17 278.75 324.097 278.75 324.025 278.75C323.953 278.75 323.88 278.75 323.808 278.75C323.735 278.75 323.662 278.75 323.589 278.75C323.516 278.75 323.443 278.75 323.37 278.75C323.297 278.75 323.223 278.75 323.15 278.75C323.077 278.75 323.003 278.75 322.929 278.75C322.855 278.75 322.781 278.75 322.707 278.75C322.633 278.75 322.559 278.75 322.485 278.75C322.411 278.75 322.336 278.75 322.262 278.75C322.187 278.75 322.112 278.75 322.037 278.75C321.963 278.75 321.888 278.75 321.812 278.75C321.737 278.75 321.662 278.75 321.587 278.75C321.511 278.75 321.436 278.75 321.36 278.75C321.284 278.75 321.209 278.75 321.133 278.75C321.057 278.75 320.981 278.75 320.905 278.75C320.828 278.75 320.752 278.75 320.676 278.75C320.599 278.75 320.523 278.75 320.446 278.75C320.369 278.75 320.293 278.75 320.216 278.75C320.139 278.75 320.062 278.75 319.984 278.75C319.907 278.75 319.83 278.75 319.752 278.75C319.675 278.75 319.597 278.75 319.52 278.75C319.442 278.75 319.364 278.75 319.286 278.75C319.208 278.75 319.13 278.75 319.052 278.75C318.974 278.75 318.896 278.75 318.817 278.75C318.739 278.75 318.66 278.75 318.582 278.75C318.503 278.75 318.424 278.75 318.345 278.75C318.266 278.75 318.187 278.75 318.108 278.75C318.029 278.75 317.95 278.75 317.87 278.75C317.791 278.75 317.712 278.75 317.632 278.75C317.552 278.75 317.473 278.75 317.393 278.75C317.313 278.75 317.233 278.75 317.153 278.75C317.073 278.75 316.993 278.75 316.912 278.75C316.832 278.75 316.752 278.75 316.671 278.75C316.591 278.75 316.51 278.75 316.429 278.75C316.349 278.75 316.268 278.75 316.187 278.75C316.106 278.75 316.025 278.75 315.944 278.75C315.863 278.75 315.781 278.75 315.7 278.75C315.619 278.75 315.537 278.75 315.455 278.75C315.374 278.75 315.292 278.75 315.21 278.75C315.129 278.75 315.047 278.75 314.965 278.75C314.883 278.75 314.801 278.75 314.718 278.75C314.636 278.75 314.554 278.75 314.471 278.75C314.389 278.75 314.306 278.75 314.224 278.75C314.141 278.75 314.058 278.75 313.976 278.75C313.893 278.75 313.81 278.75 313.727 278.75C313.644 278.75 313.561 278.75 313.477 278.75C313.394 278.75 313.311 278.75 313.227 278.75C313.144 278.75 313.061 278.75 312.977 278.75C312.893 278.75 312.81 278.75 312.726 278.75C312.642 278.75 312.558 278.75 312.474 278.75C312.39 278.75 312.306 278.75 312.222 278.75C312.138 278.75 312.053 278.75 311.969 278.75C311.885 278.75 311.8 278.75 311.716 278.75C311.631 278.75 311.547 278.75 311.462 278.75C311.377 278.75 311.292 278.75 311.207 278.75C311.123 278.75 311.038 278.75 310.953 278.75C310.867 278.75 310.782 278.75 310.697 278.75C310.612 278.75 310.526 278.75 310.441 278.75C310.356 278.75 310.27 278.75 310.185 278.75C310.099 278.75 310.013 278.75 309.928 278.75C309.842 278.75 309.756 278.75 309.67 278.75C309.584 278.75 309.498 278.75 309.412 278.75C309.326 278.75 309.24 278.75 309.154 278.75C309.067 278.75 308.981 278.75 308.895 278.75C308.808 278.75 308.722 278.75 308.635 278.75C308.549 278.75 308.462 278.75 308.375 278.75C308.288 278.75 308.202 278.75 308.115 278.75C308.028 278.75 307.941 278.75 307.854 278.75C307.767 278.75 307.68 278.75 307.593 278.75C307.505 278.75 307.418 278.75 307.331 278.75C307.244 278.75 307.156 278.75 307.069 278.75C306.981 278.75 306.894 278.75 306.806 278.75C306.719 278.75 306.631 278.75 306.543 278.75C306.455 278.75 306.368 278.75 306.28 278.75C306.192 278.75 306.104 278.75 306.016 278.75C305.928 278.75 305.84 278.75 305.751 278.75C305.663 278.75 305.575 278.75 305.487 278.75C305.399 278.75 305.31 278.75 305.222 278.75C305.133 278.75 305.045 278.75 304.956 278.75C304.868 278.75 304.779 278.75 304.69 278.75C304.602 278.75 304.513 278.75 304.424 278.75C304.335 278.75 304.247 278.75 304.158 278.75C304.069 278.75 303.98 278.75 303.891 278.75C303.802 278.75 303.713 278.75 303.623 278.75C303.534 278.75 303.445 278.75 303.356 278.75C303.266 278.75 303.177 278.75 303.088 278.75C302.998 278.75 302.909 278.75 302.819 278.75C302.73 278.75 302.64 278.75 302.551 278.75C302.461 278.75 302.371 278.75 302.282 278.75C302.192 278.75 302.102 278.75 302.012 278.75C301.923 278.75 301.833 278.75 301.743 278.75C301.653 278.75 301.563 278.75 301.473 278.75C301.383 278.75 301.293 278.75 301.202 278.75C301.112 278.75 301.022 278.75 300.932 278.75C300.842 278.75 300.751 278.75 300.661 278.75C300.571 278.75 300.48 278.75 300.39 278.75C300.3 278.75 300.209 278.75 300.119 278.75C300.028 278.75 299.937 278.75 299.847 278.75C299.756 278.75 299.666 278.75 299.575 278.75C299.484 278.75 299.393 278.75 299.303 278.75C299.212 278.75 299.121 278.75 299.03 278.75C298.939 278.75 298.849 278.75 298.758 278.75C298.667 278.75 298.576 278.75 298.485 278.75C298.394 278.75 298.303 278.75 298.211 278.75C298.12 278.75 298.029 278.75 297.938 278.75C297.847 278.75 297.756 278.75 297.664 278.75C297.573 278.75 297.482 278.75 297.391 278.75C297.299 278.75 297.208 278.75 297.117 278.75C297.025 278.75 296.934 278.75 296.842 278.75C296.751 278.75 296.659 278.75 296.568 278.75C296.476 278.75 296.385 278.75 296.293 278.75C296.202 278.75 296.11 278.75 296.018 278.75C295.927 278.75 295.835 278.75 295.743 278.75C295.652 278.75 295.56 278.75 295.468 278.75C295.376 278.75 295.285 278.75 295.193 278.75C295.101 278.75 295.009 278.75 294.917 278.75C294.825 278.75 294.734 278.75 294.642 278.75C294.55 278.75 294.458 278.75 294.366 278.75C294.274 278.75 294.182 278.75 294.09 278.75C293.998 278.75 293.906 278.75 293.814 278.75C293.722 278.75 293.63 278.75 293.538 278.75C293.445 278.75 293.353 278.75 293.261 278.75C293.169 278.75 293.077 278.75 292.985 278.75C292.893 278.75 292.8 278.75 292.708 278.75C292.616 278.75 292.524 278.75 292.431 278.75C292.339 278.75 292.247 278.75 292.155 278.75C292.062 278.75 291.97 278.75 291.878 278.75C291.786 278.75 291.693 278.75 291.601 278.75C291.509 278.75 291.416 278.75 291.324 278.75C291.231 278.75 291.139 278.75 291.047 278.75C290.954 278.75 290.862 278.75 290.77 278.75C290.677 278.75 290.585 278.75 290.492 278.75C290.4 278.75 290.307 278.75 290.215 278.75C290.123 278.75 290.03 278.75 289.938 278.75C289.845 278.75 289.753 278.75 289.66 278.75C289.568 278.75 289.475 278.75 289.383 278.75C289.29 278.75 289.198 278.75 289.105 278.75C289.013 278.75 288.92 278.75 288.828 278.75C288.735 278.75 288.643 278.75 288.55 278.75C288.458 278.75 288.365 278.75 288.273 278.75C288.18 278.75 288.088 278.75 287.995 278.75C287.903 278.75 287.81 278.75 287.718 278.75C287.625 278.75 287.533 278.75 287.44 278.75C287.348 278.75 287.255 278.75 287.163 278.75C287.07 278.75 286.978 278.75 286.885 278.75C286.793 278.75 286.7 278.75 286.608 278.75C286.515 278.75 286.423 278.75 286.33 278.75C286.238 278.75 286.145 278.75 286.053 278.75C285.961 278.75 285.868 278.75 285.776 278.75C285.683 278.75 285.591 278.75 285.498 278.75C285.406 278.75 285.314 278.75 285.221 278.75C285.129 278.75 285.036 278.75 284.944 278.75C284.852 278.75 284.759 278.75 284.667 278.75C284.574 278.75 284.482 278.75 284.39 278.75C284.297 278.75 284.205 278.75 284.113 278.75C284.02 278.75 283.928 278.75 283.836 278.75C283.744 278.75 283.651 278.75 283.559 278.75C283.467 278.75 283.375 278.75 283.282 278.75C283.19 278.75 283.098 278.75 283.006 278.75C282.914 278.75 282.822 278.75 282.729 278.75C282.637 278.75 282.545 278.75 282.453 278.75C282.361 278.75 282.269 278.75 282.177 278.75C282.085 278.75 281.993 278.75 281.901 278.75C281.809 278.75 281.717 278.75 281.625 278.75C281.533 278.75 281.441 278.75 281.349 278.75C281.257 278.75 281.165 278.75 281.073 278.75C280.981 278.75 280.89 278.75 280.798 278.75C280.706 278.75 280.614 278.75 280.522 278.75C280.431 278.75 280.339 278.75 280.247 278.75C280.155 278.75 280.064 278.75 279.972 278.75C279.88 278.75 279.789 278.75 279.697 278.75C279.606 278.75 279.514 278.75 279.423 278.75C279.331 278.75 279.24 278.75 279.148 278.75C279.057 278.75 278.965 278.75 278.874 278.75C278.782 278.75 278.691 278.75 278.6 278.75C278.508 278.75 278.417 278.75 278.326 278.75C278.235 278.75 278.143 278.75 278.052 278.75C277.961 278.75 277.87 278.75 277.779 278.75C277.688 278.75 277.597 278.75 277.506 278.75C277.415 278.75 277.324 278.75 277.233 278.75C277.142 278.75 277.051 278.75 276.96 278.75C276.869 278.75 276.778 278.75 276.688 278.75C276.597 278.75 276.506 278.75 276.415 278.75C276.325 278.75 276.234 278.75 276.143 278.75C276.053 278.75 275.962 278.75 275.872 278.75C275.781 278.75 275.691 278.75 275.6 278.75C275.51 278.75 275.419 278.75 275.329 278.75C275.239 278.75 275.148 278.75 275.058 278.75C274.968 278.75 274.878 278.75 274.788 278.75C274.697 278.75 274.607 278.75 274.517 278.75C274.427 278.75 274.337 278.75 274.247 278.75C274.157 278.75 274.068 278.75 273.978 278.75C273.888 278.75 273.798 278.75 273.708 278.75C273.619 278.75 273.529 278.75 273.439 278.75C273.35 278.75 273.26 278.75 273.171 278.75C273.081 278.75 272.992 278.75 272.902 278.75C272.813 278.75 272.723 278.75 272.634 278.75C272.545 278.75 272.456 278.75 272.366 278.75C272.277 278.75 272.188 278.75 272.099 278.75C272.01 278.75 271.921 278.75 271.832 278.75C271.743 278.75 271.654 278.75 271.566 278.75C271.477 278.75 271.388 278.75 271.299 278.75C271.211 278.75 271.122 278.75 271.033 278.75C270.945 278.75 270.856 278.75 270.768 278.75C270.679 278.75 270.591 278.75 270.503 278.75C270.415 278.75 270.326 278.75 270.238 278.75C270.15 278.75 270.062 278.75 269.974 278.75C269.886 278.75 269.798 278.75 269.71 278.75C269.622 278.75 269.534 278.75 269.446 278.75C269.359 278.75 269.271 278.75 269.183 278.75C269.096 278.75 269.008 278.75 268.921 278.75C268.833 278.75 268.746 278.75 268.658 278.75C268.571 278.75 268.484 278.75 268.397 278.75C268.31 278.75 268.222 278.75 268.135 278.75C268.048 278.75 267.961 278.75 267.875 278.75C267.788 278.75 267.701 278.75 267.614 278.75C267.527 278.75 267.441 278.75 267.354 278.75C267.268 278.75 267.181 278.75 267.095 278.75C267.008 278.75 266.922 278.75 266.836 278.75C266.749 278.75 266.663 278.75 266.577 278.75C266.491 278.75 266.405 278.75 266.319 278.75C266.233 278.75 266.147 278.75 266.061 278.75C265.976 278.75 265.89 278.75 265.804 278.75C265.719 278.75 265.633 278.75 265.548 278.75C265.462 278.75 265.377 278.75 265.292 278.75C265.207 278.75 265.121 278.75 265.036 278.75C264.951 278.75 264.866 278.75 264.781 278.75C264.696 278.75 264.612 278.75 264.527 278.75C264.442 278.75 264.357 278.75 264.273 278.75C264.188 278.75 264.104 278.75 264.02 278.75C263.935 278.75 263.851 278.75 263.767 278.75C263.683 278.75 263.598 278.75 263.514 278.75C263.43 278.75 263.347 278.75 263.263 278.75C263.179 278.75 263.095 278.75 263.012 278.75C262.928 278.75 262.844 278.75 262.761 278.75C262.678 278.75 262.594 278.75 262.511 278.75C262.428 278.75 262.345 278.75 262.262 278.75C262.178 278.75 262.096 278.75 262.013 278.75C261.93 278.75 261.847 278.75 261.764 278.75C261.682 278.75 261.599 278.75 261.517 278.75C261.434 278.75 261.352 278.75 261.27 278.75C261.188 278.75 261.105 278.75 261.023 278.75C260.941 278.75 260.859 278.75 260.778 278.75C260.696 278.75 260.614 278.75 260.533 278.75C260.451 278.75 260.369 278.75 260.288 278.75C260.207 278.75 260.125 278.75 260.044 278.75C259.963 278.75 259.882 278.75 259.801 278.75C259.72 278.75 259.639 278.75 259.558 278.75C259.478 278.75 259.397 278.75 259.316 278.75C259.236 278.75 259.156 278.75 259.075 278.75C258.995 278.75 258.915 278.75 258.835 278.75C258.755 278.75 258.675 278.75 258.595 278.75C258.515 278.75 258.435 278.75 258.356 278.75C258.276 278.75 258.196 278.75 258.117 278.75C258.038 278.75 257.958 278.75 257.879 278.75C257.8 278.75 257.721 278.75 257.642 278.75C257.563 278.75 257.484 278.75 257.406 278.75C257.327 278.75 257.248 278.75 257.17 278.75C257.092 278.75 257.013 278.75 256.935 278.75C256.857 278.75 256.779 278.75 256.701 278.75C256.623 278.75 256.545 278.75 256.467 278.75C256.39 278.75 256.312 278.75 256.235 278.75C256.157 278.75 256.08 278.75 256.003 278.75C255.925 278.75 255.848 278.75 255.771 278.75C255.694 278.75 255.617 278.75 255.541 278.75C255.464 278.75 255.387 278.75 255.311 278.75C255.235 278.75 255.158 278.75 255.082 278.75C255.006 278.75 254.93 278.75 254.854 278.75C254.778 278.75 254.702 278.75 254.626 278.75C254.551 278.75 254.475 278.75 254.4 278.75C254.324 278.75 254.249 278.75 254.174 278.75C254.099 278.75 254.024 278.75 253.949 278.75C253.874 278.75 253.799 278.75 253.725 278.75C253.65 278.75 253.576 278.75 253.501 278.75C253.427 278.75 253.353 278.75 253.279 278.75C253.205 278.75 253.131 278.75 253.057 278.75C252.983 278.75 252.91 278.75 252.836 278.75C252.763 278.75 252.689 278.75 252.616 278.75C252.543 278.75 252.47 278.75 252.397 278.75C252.324 278.75 252.251 278.75 252.178 278.75C252.106 278.75 252.033 278.75 251.961 278.75C251.888 278.75 251.816 278.75 251.744 278.75C251.672 278.75 251.6 278.75 251.528 278.75C251.457 278.75 251.385 278.75 251.313 278.75C251.242 278.75 251.171 278.75 251.099 278.75C251.028 278.75 250.957 278.75 250.886 278.75C250.815 278.75 250.745 278.75 250.674 278.75C250.603 278.75 250.533 278.75 250.463 278.75C250.392 278.75 250.322 278.75 250.252 278.75C250.182 278.75 250.112 278.75 250.043 278.75C249.973 278.75 249.903 278.75 249.834 278.75C249.765 278.75 249.695 278.75 249.626 278.75C249.557 278.75 249.488 278.75 249.419 278.75C249.351 278.75 249.282 278.75 249.214 278.75C249.145 278.75 249.077 278.75 249.009 278.75C248.941 278.75 248.873 278.75 248.805 278.75C248.737 278.75 248.669 278.75 248.602 278.75C248.534 278.75 248.467 278.75 248.4 278.75C248.333 278.75 248.266 278.75 248.199 278.75C248.132 278.75 248.065 278.75 247.999 278.75C247.932 278.75 247.866 278.75 247.8 278.75C247.733 278.75 247.667 278.75 247.602 278.75C247.536 278.75 247.47 278.75 247.404 278.75C247.339 278.75 247.273 278.75 247.208 278.75C247.143 278.75 247.078 278.75 247.013 278.75C246.948 278.75 246.884 278.75 246.819 278.75C246.755 278.75 246.69 278.75 246.626 278.75C246.562 278.75 246.498 278.75 246.434 278.75C246.37 278.75 246.306 278.75 246.243 278.75C246.179 278.75 246.116 278.75 246.053 278.75C245.99 278.75 245.927 278.75 245.864 278.75C245.801 278.75 245.739 278.75 245.676 278.75C245.614 278.75 245.551 278.75 245.489 278.75C245.427 278.75 245.365 278.75 245.303 278.75C245.242 278.75 245.18 278.75 245.119 278.75C245.057 278.75 244.996 278.75 244.935 278.75C244.874 278.75 244.813 278.75 244.753 278.75C244.692 278.75 244.631 278.75 244.571 278.75C244.511 278.75 244.451 278.75 244.391 278.75C244.331 278.75 244.271 278.75 244.211 278.75C244.152 278.75 244.092 278.75 244.033 278.75C243.974 278.75 243.915 278.75 243.856 278.75C243.797 278.75 243.739 278.75 243.68 278.75C243.622 278.75 243.563 278.75 243.505 278.75C243.447 278.75 243.389 278.75 243.332 278.75C243.274 278.75 243.216 278.75 243.159 278.75C243.102 278.75 243.045 278.75 242.988 278.75C242.931 278.75 242.874 278.75 242.817 278.75C242.761 278.75 242.704 278.75 242.648 278.75C242.592 278.75 242.536 278.75 242.48 278.75C242.424 278.75 242.369 278.75 242.313 278.75C242.258 278.75 242.203 278.75 242.148 278.75C242.093 278.75 242.038 278.75 241.983 278.75C241.929 278.75 241.874 278.75 241.82 278.75C241.766 278.75 241.712 278.75 241.658 278.75C241.604 278.75 241.55 278.75 241.497 278.75C241.444 278.75 241.39 278.75 241.337 278.75C241.284 278.75 241.231 278.75 241.179 278.75C241.126 278.75 241.074 278.75 241.022 278.75C240.969 278.75 240.917 278.75 240.866 278.75C240.814 278.75 240.762 278.75 240.711 278.75C240.659 278.75 240.608 278.75 240.557 278.75C240.506 278.75 240.455 278.75 240.405 278.75C240.354 278.75 240.304 278.75 240.254 278.75C240.204 278.75 240.154 278.75 240.104 278.75C240.054 278.75 240.005 278.75 239.955 278.75C239.906 278.75 239.857 278.75 239.808 278.75C239.759 278.75 239.71 278.75 239.662 278.75C239.613 278.75 239.565 278.75 239.517 278.75C239.469 278.75 239.421 278.75 239.374 278.75C239.326 278.75 239.279 278.75 239.231 278.75C239.184 278.75 239.137 278.75 239.091 278.75C239.044 278.75 238.997 278.75 238.951 278.75C238.905 278.75 238.859 278.75 238.813 278.75C238.767 278.75 238.721 278.75 238.676 278.75C238.63 278.75 238.585 278.75 238.54 278.75C238.495 278.75 238.45 278.75 238.406 278.75C238.361 278.75 238.317 278.75 238.273 278.75C238.229 278.75 238.185 278.75 238.141 278.75C238.097 278.75 238.054 278.75 238.011 278.75C237.967 278.75 237.924 278.75 237.882 278.75C237.839 278.75 237.796 278.75 237.754 278.75C237.712 278.75 237.67 278.75 237.628 278.75C237.586 278.75 237.544 278.75 237.503 278.75C237.462 278.75 237.42 278.75 237.379 278.75C237.339 278.75 237.298 278.75 237.257 278.75C237.217 278.75 237.177 278.75 237.137 278.75C237.097 278.75 237.057 278.75 237.017 278.75C236.978 278.75 236.938 278.75 236.899 278.75C236.86 278.75 236.821 278.75 236.783 278.75C236.744 278.75 236.706 278.75 236.668 278.75C236.63 278.75 236.592 278.75 236.554 278.75C236.516 278.75 236.479 278.75 236.442 278.75C236.405 278.75 236.368 278.75 236.331 278.75C236.294 278.75 236.258 278.75 236.221 278.75C236.185 278.75 236.149 278.75 236.113 278.75C236.078 278.75 236.042 278.75 236.007 278.75C235.972 278.75 235.937 278.75 235.902 278.75C235.867 278.75 235.833 278.75 235.798 278.75C235.764 278.75 235.73 278.75 235.696 278.75C235.662 278.75 235.629 278.75 235.596 278.75C235.562 278.75 235.529 278.75 235.496 278.75C235.464 278.75 235.431 278.75 235.399 278.75C235.366 278.75 235.334 278.75 235.302 278.75C235.271 278.75 235.239 278.75 235.208 278.75C235.176 278.75 235.145 278.75 235.115 278.75C235.084 278.75 235.053 278.75 235.023 278.75C234.993 278.75 234.962 278.75 234.933 278.75C234.903 278.75 234.873 278.75 234.844 278.75C234.815 278.75 234.786 278.75 234.757 278.75C234.728 278.75 234.7 278.75 234.671 278.75C234.643 278.75 234.615 278.75 234.587 278.75C234.56 278.75 234.532 278.75 234.505 278.75C234.478 278.75 234.451 278.75 234.424 278.75C234.397 278.75 234.371 278.75 234.344 278.75C234.318 278.75 234.292 278.75 234.267 278.75C234.241 278.75 234.216 278.75 234.19 278.75C234.165 278.75 234.14 278.75 234.116 278.75C234.091 278.75 234.067 278.75 234.043 278.75C234.019 278.75 233.995 278.75 233.971 278.75C233.948 278.75 233.924 278.75 233.901 278.75C233.878 278.75 233.856 278.75 233.833 278.75C233.811 278.75 233.788 278.75 233.766 278.75C233.744 278.75 233.723 278.75 233.701 278.75C233.68 278.75 233.659 278.75 233.638 278.75C233.617 278.75 233.596 278.75 233.576 278.75C233.556 278.75 233.536 278.75 233.516 278.75C233.496 278.75 233.477 278.75 233.457 278.75C233.438 278.75 233.419 278.75 233.401 278.75C233.382 278.75 233.363 278.75 233.345 278.75C233.327 278.75 233.309 278.75 233.292 278.75C233.274 278.75 233.257 278.75 233.24 278.75C233.223 278.75 233.206 278.75 233.19 278.75C233.173 278.75 233.157 278.75 233.141 278.75C233.125 278.75 233.11 278.75 233.094 278.75C233.079 278.75 233.064 278.75 233.049 278.75C233.034 278.75 233.02 278.75 233.006 278.75C232.991 278.75 232.977 278.75 232.964 278.75C232.95 278.75 232.937 278.75 232.924 278.75C232.911 278.75 232.898 278.75 232.885 278.75C232.873 278.75 232.861 278.75 232.849 278.75C232.837 278.75 232.825 278.75 232.814 278.75C232.802 278.75 232.791 278.75 232.781 278.75C232.77 278.75 232.759 278.75 232.749 278.75C232.739 278.75 232.729 278.75 232.719 278.75C232.71 278.75 232.701 278.75 232.692 278.75C232.683 278.75 232.674 278.75 232.665 278.75C232.657 278.75 232.649 278.75 232.641 278.75C232.633 278.75 232.626 278.75 232.618 278.75C232.611 278.75 232.604 278.75 232.597 278.75C232.591 278.75 232.584 278.75 232.578 278.75C232.572 278.75 232.567 278.75 232.561 278.75C232.556 278.75 232.55 278.75 232.546 278.75C232.541 278.75 232.536 278.75 232.532 278.75C232.528 278.75 232.524 278.75 232.52 278.75C232.516 278.75 232.513 278.75 232.51 278.75C232.507 278.75 232.504 278.75 232.502 278.75C232.499 278.75 232.497 278.75 232.495 278.75C232.493 278.75 232.492 278.75 232.491 278.75C232.489 278.75 232.488 278.75 232.488 278.75C232.487 278.75 232.487 278.75 232.487 279.5ZM168.282 252.367C182.925 254.066 197.568 255.694 212.195 257.467L212.376 255.978C197.743 254.205 183.088 252.575 168.454 250.877L168.282 252.367ZM212.196 257.467C212.197 257.468 212.198 257.468 212.2 257.468C212.201 257.468 212.203 257.468 212.205 257.469L212.384 255.979C212.383 255.979 212.382 255.979 212.38 255.979C212.379 255.979 212.377 255.978 212.375 255.978L212.196 257.467ZM337.028 280.25C356.261 280.25 369.308 270.128 369.308 257.198H367.808C367.808 268.903 355.895 278.75 337.028 278.75V280.25ZM369.308 257.198C369.308 250.393 367.308 245.239 364.079 241.637C360.855 238.039 356.46 236.052 351.779 235.478C342.452 234.334 331.835 238.783 326.662 247.547L327.954 248.309C332.794 240.109 342.802 235.888 351.596 236.967C355.977 237.504 360.017 239.352 362.962 242.638C365.904 245.919 367.808 250.697 367.808 257.198H369.308ZM328.916 255.358C329.893 255.68 331.014 255.793 332.158 255.406L331.677 253.986C330.918 254.242 330.141 254.182 329.384 253.933L328.916 255.358ZM332.158 255.406C334.975 254.453 336.448 252.155 337.102 249.432C337.75 246.73 337.622 243.514 337.192 240.477C336.76 237.428 336.012 234.494 335.376 232.329C335.057 231.245 334.765 230.35 334.552 229.724C334.446 229.412 334.359 229.166 334.299 228.998C334.269 228.914 334.245 228.85 334.229 228.806C334.221 228.784 334.215 228.767 334.21 228.755C334.208 228.749 334.207 228.745 334.206 228.742C334.205 228.74 334.204 228.739 334.204 228.738C334.204 228.738 334.204 228.737 334.204 228.737C334.204 228.737 334.204 228.736 333.501 229C332.799 229.264 332.799 229.264 332.799 229.264C332.799 229.264 332.799 229.264 332.8 229.265C332.8 229.265 332.8 229.266 332.8 229.267C332.801 229.269 332.803 229.273 332.805 229.278C332.808 229.288 332.814 229.303 332.821 229.323C332.836 229.364 332.859 229.425 332.887 229.505C332.945 229.666 333.029 229.903 333.132 230.208C333.339 230.816 333.625 231.691 333.937 232.752C334.562 234.877 335.288 237.735 335.707 240.688C336.127 243.653 336.227 246.65 335.643 249.082C335.064 251.493 333.846 253.251 331.677 253.986L332.158 255.406ZM326.662 247.547C325.846 248.929 325.598 250.587 325.949 252.046C326.304 253.52 327.284 254.822 328.916 255.358L329.384 253.933C328.323 253.585 327.661 252.748 327.408 251.695C327.151 250.627 327.329 249.368 327.954 248.309L326.662 247.547Z" fill="#071D2B"/>
</svg>
